<mxfile host="app.diagrams.net" agent="Mozilla/5.0 (X11; Linux x86_64) AppleWebKit/537.36 (KHTML, like Gecko) Chrome/131.0.0.0 Safari/537.36" version="26.0.10">
  <diagram name="Page-1" id="R1-yTXo5zvl7rEeogP4f">
    <mxGraphModel dx="4568" dy="1588" grid="1" gridSize="10" guides="1" tooltips="1" connect="1" arrows="1" fold="1" page="1" pageScale="1" pageWidth="850" pageHeight="1100" math="0" shadow="0">
      <root>
        <mxCell id="0" />
        <mxCell id="1" parent="0" />
        <mxCell id="rmzS-7ujOIjfE1PjtxYk-1" value="user" style="swimlane;whiteSpace=wrap;html=1;" parent="1" vertex="1">
          <mxGeometry x="350" y="310" width="200" height="100" as="geometry" />
        </mxCell>
        <mxCell id="rmzS-7ujOIjfE1PjtxYk-2" value="id" style="text;html=1;align=center;verticalAlign=middle;resizable=0;points=[];autosize=1;strokeColor=none;fillColor=none;" parent="rmzS-7ujOIjfE1PjtxYk-1" vertex="1">
          <mxGeometry x="85" y="30" width="30" height="30" as="geometry" />
        </mxCell>
        <mxCell id="rmzS-7ujOIjfE1PjtxYk-6" value="first_name" style="text;html=1;align=center;verticalAlign=middle;resizable=0;points=[];autosize=1;strokeColor=none;fillColor=none;" parent="rmzS-7ujOIjfE1PjtxYk-1" vertex="1">
          <mxGeometry x="60" y="70" width="80" height="30" as="geometry" />
        </mxCell>
        <mxCell id="rmzS-7ujOIjfE1PjtxYk-7" value="last_name" style="text;html=1;align=center;verticalAlign=middle;resizable=0;points=[];autosize=1;strokeColor=none;fillColor=none;" parent="rmzS-7ujOIjfE1PjtxYk-1" vertex="1">
          <mxGeometry x="60" y="50" width="80" height="30" as="geometry" />
        </mxCell>
        <mxCell id="rmzS-7ujOIjfE1PjtxYk-8" value="delivery_partner" style="swimlane;whiteSpace=wrap;html=1;" parent="1" vertex="1">
          <mxGeometry x="650" y="310" width="200" height="130" as="geometry" />
        </mxCell>
        <mxCell id="rmzS-7ujOIjfE1PjtxYk-22" value="vehicle_type" style="text;html=1;align=center;verticalAlign=middle;resizable=0;points=[];autosize=1;strokeColor=none;fillColor=none;" parent="rmzS-7ujOIjfE1PjtxYk-8" vertex="1">
          <mxGeometry x="55" y="40" width="90" height="30" as="geometry" />
        </mxCell>
        <mxCell id="rmzS-7ujOIjfE1PjtxYk-23" value="license" style="text;html=1;align=center;verticalAlign=middle;resizable=0;points=[];autosize=1;strokeColor=none;fillColor=none;" parent="rmzS-7ujOIjfE1PjtxYk-8" vertex="1">
          <mxGeometry x="70" y="78" width="60" height="30" as="geometry" />
        </mxCell>
        <mxCell id="rmzS-7ujOIjfE1PjtxYk-24" value="vehicle_number" style="text;html=1;align=center;verticalAlign=middle;resizable=0;points=[];autosize=1;strokeColor=none;fillColor=none;" parent="rmzS-7ujOIjfE1PjtxYk-8" vertex="1">
          <mxGeometry x="45" y="60" width="110" height="30" as="geometry" />
        </mxCell>
        <mxCell id="rmzS-7ujOIjfE1PjtxYk-30" value="id" style="text;html=1;align=center;verticalAlign=middle;resizable=0;points=[];autosize=1;strokeColor=none;fillColor=none;" parent="rmzS-7ujOIjfE1PjtxYk-8" vertex="1">
          <mxGeometry x="85" y="20" width="30" height="30" as="geometry" />
        </mxCell>
        <mxCell id="rmzS-7ujOIjfE1PjtxYk-9" value="address" style="swimlane;whiteSpace=wrap;html=1;" parent="1" vertex="1">
          <mxGeometry x="80" y="310" width="200" height="240" as="geometry" />
        </mxCell>
        <mxCell id="rmzS-7ujOIjfE1PjtxYk-10" value="city" style="text;html=1;align=center;verticalAlign=middle;resizable=0;points=[];autosize=1;strokeColor=none;fillColor=none;" parent="rmzS-7ujOIjfE1PjtxYk-9" vertex="1">
          <mxGeometry x="80" y="40" width="40" height="30" as="geometry" />
        </mxCell>
        <mxCell id="rmzS-7ujOIjfE1PjtxYk-12" value="pin_code" style="text;html=1;align=center;verticalAlign=middle;resizable=0;points=[];autosize=1;strokeColor=none;fillColor=none;" parent="rmzS-7ujOIjfE1PjtxYk-9" vertex="1">
          <mxGeometry x="65" y="130" width="70" height="30" as="geometry" />
        </mxCell>
        <mxCell id="rmzS-7ujOIjfE1PjtxYk-13" value="state" style="text;html=1;align=center;verticalAlign=middle;resizable=0;points=[];autosize=1;strokeColor=none;fillColor=none;" parent="rmzS-7ujOIjfE1PjtxYk-9" vertex="1">
          <mxGeometry x="75" y="70" width="50" height="30" as="geometry" />
        </mxCell>
        <mxCell id="rmzS-7ujOIjfE1PjtxYk-14" value="country" style="text;html=1;align=center;verticalAlign=middle;resizable=0;points=[];autosize=1;strokeColor=none;fillColor=none;" parent="rmzS-7ujOIjfE1PjtxYk-9" vertex="1">
          <mxGeometry x="70" y="100" width="60" height="30" as="geometry" />
        </mxCell>
        <mxCell id="rmzS-7ujOIjfE1PjtxYk-15" value="entity_id" style="text;html=1;align=center;verticalAlign=middle;resizable=0;points=[];autosize=1;strokeColor=none;fillColor=none;" parent="rmzS-7ujOIjfE1PjtxYk-9" vertex="1">
          <mxGeometry x="65" y="160" width="70" height="30" as="geometry" />
        </mxCell>
        <mxCell id="rmzS-7ujOIjfE1PjtxYk-16" value="id" style="text;html=1;align=center;verticalAlign=middle;resizable=0;points=[];autosize=1;strokeColor=none;fillColor=none;" parent="rmzS-7ujOIjfE1PjtxYk-9" vertex="1">
          <mxGeometry x="85" y="20" width="30" height="30" as="geometry" />
        </mxCell>
        <mxCell id="rmzS-7ujOIjfE1PjtxYk-39" value="entity_type" style="text;html=1;align=center;verticalAlign=middle;resizable=0;points=[];autosize=1;strokeColor=none;fillColor=none;" parent="rmzS-7ujOIjfE1PjtxYk-9" vertex="1">
          <mxGeometry x="60" y="190" width="80" height="30" as="geometry" />
        </mxCell>
        <mxCell id="rmzS-7ujOIjfE1PjtxYk-18" value="" style="endArrow=none;html=1;rounded=0;" parent="1" edge="1">
          <mxGeometry width="50" height="50" relative="1" as="geometry">
            <mxPoint x="280" y="480" as="sourcePoint" />
            <mxPoint x="330" y="480" as="targetPoint" />
          </mxGeometry>
        </mxCell>
        <mxCell id="rmzS-7ujOIjfE1PjtxYk-19" value="" style="endArrow=none;html=1;rounded=0;" parent="1" edge="1">
          <mxGeometry width="50" height="50" relative="1" as="geometry">
            <mxPoint x="310" y="480" as="sourcePoint" />
            <mxPoint x="310" y="280" as="targetPoint" />
          </mxGeometry>
        </mxCell>
        <mxCell id="rmzS-7ujOIjfE1PjtxYk-20" value="" style="endArrow=none;html=1;rounded=0;" parent="1" edge="1">
          <mxGeometry width="50" height="50" relative="1" as="geometry">
            <mxPoint x="310" y="280" as="sourcePoint" />
            <mxPoint x="440" y="280" as="targetPoint" />
          </mxGeometry>
        </mxCell>
        <mxCell id="rmzS-7ujOIjfE1PjtxYk-21" value="" style="endArrow=none;html=1;rounded=0;exitX=0.449;exitY=0.008;exitDx=0;exitDy=0;exitPerimeter=0;" parent="1" source="rmzS-7ujOIjfE1PjtxYk-1" edge="1">
          <mxGeometry width="50" height="50" relative="1" as="geometry">
            <mxPoint x="390" y="440" as="sourcePoint" />
            <mxPoint x="440" y="280" as="targetPoint" />
          </mxGeometry>
        </mxCell>
        <mxCell id="rmzS-7ujOIjfE1PjtxYk-25" value="user_id" style="text;html=1;align=center;verticalAlign=middle;resizable=0;points=[];autosize=1;strokeColor=none;fillColor=none;" parent="1" vertex="1">
          <mxGeometry x="720" y="408" width="60" height="30" as="geometry" />
        </mxCell>
        <mxCell id="rmzS-7ujOIjfE1PjtxYk-26" value="" style="endArrow=none;html=1;rounded=0;" parent="1" edge="1">
          <mxGeometry width="50" height="50" relative="1" as="geometry">
            <mxPoint x="600" y="430" as="sourcePoint" />
            <mxPoint x="650" y="430" as="targetPoint" />
          </mxGeometry>
        </mxCell>
        <mxCell id="rmzS-7ujOIjfE1PjtxYk-27" value="" style="endArrow=none;html=1;rounded=0;" parent="1" edge="1">
          <mxGeometry width="50" height="50" relative="1" as="geometry">
            <mxPoint x="600" y="430" as="sourcePoint" />
            <mxPoint x="600" y="280" as="targetPoint" />
          </mxGeometry>
        </mxCell>
        <mxCell id="rmzS-7ujOIjfE1PjtxYk-28" value="" style="endArrow=none;html=1;rounded=0;" parent="1" edge="1">
          <mxGeometry width="50" height="50" relative="1" as="geometry">
            <mxPoint x="440" y="280" as="sourcePoint" />
            <mxPoint x="600" y="280" as="targetPoint" />
          </mxGeometry>
        </mxCell>
        <mxCell id="rmzS-7ujOIjfE1PjtxYk-35" value="restaurant" style="swimlane;whiteSpace=wrap;html=1;" parent="1" vertex="1">
          <mxGeometry x="330" y="675" width="200" height="120" as="geometry" />
        </mxCell>
        <mxCell id="rmzS-7ujOIjfE1PjtxYk-36" value="id" style="text;html=1;align=center;verticalAlign=middle;resizable=0;points=[];autosize=1;strokeColor=none;fillColor=none;" parent="rmzS-7ujOIjfE1PjtxYk-35" vertex="1">
          <mxGeometry x="85" y="20" width="30" height="30" as="geometry" />
        </mxCell>
        <mxCell id="rmzS-7ujOIjfE1PjtxYk-37" value="name" style="text;html=1;align=center;verticalAlign=middle;resizable=0;points=[];autosize=1;strokeColor=none;fillColor=none;" parent="rmzS-7ujOIjfE1PjtxYk-35" vertex="1">
          <mxGeometry x="75" y="40" width="50" height="30" as="geometry" />
        </mxCell>
        <mxCell id="rmzS-7ujOIjfE1PjtxYk-70" value="opening_time" style="text;html=1;align=center;verticalAlign=middle;resizable=0;points=[];autosize=1;strokeColor=none;fillColor=none;" parent="rmzS-7ujOIjfE1PjtxYk-35" vertex="1">
          <mxGeometry x="50" y="60" width="100" height="30" as="geometry" />
        </mxCell>
        <mxCell id="rmzS-7ujOIjfE1PjtxYk-71" value="closing_time" style="text;html=1;align=center;verticalAlign=middle;resizable=0;points=[];autosize=1;strokeColor=none;fillColor=none;" parent="rmzS-7ujOIjfE1PjtxYk-35" vertex="1">
          <mxGeometry x="55" y="85" width="90" height="30" as="geometry" />
        </mxCell>
        <mxCell id="rmzS-7ujOIjfE1PjtxYk-40" value="entity_type" style="swimlane;whiteSpace=wrap;html=1;" parent="1" vertex="1">
          <mxGeometry x="-160" y="530" width="200" height="85" as="geometry" />
        </mxCell>
        <mxCell id="rmzS-7ujOIjfE1PjtxYk-43" value="type" style="text;html=1;align=center;verticalAlign=middle;resizable=0;points=[];autosize=1;strokeColor=none;fillColor=none;" parent="rmzS-7ujOIjfE1PjtxYk-40" vertex="1">
          <mxGeometry x="75" y="55" width="50" height="30" as="geometry" />
        </mxCell>
        <mxCell id="rmzS-7ujOIjfE1PjtxYk-42" value="id" style="text;html=1;align=center;verticalAlign=middle;resizable=0;points=[];autosize=1;strokeColor=none;fillColor=none;" parent="1" vertex="1">
          <mxGeometry x="-75" y="563" width="30" height="30" as="geometry" />
        </mxCell>
        <mxCell id="rmzS-7ujOIjfE1PjtxYk-44" value="" style="endArrow=none;html=1;rounded=0;" parent="1" edge="1">
          <mxGeometry width="50" height="50" relative="1" as="geometry">
            <mxPoint x="280" y="515" as="sourcePoint" />
            <mxPoint x="320" y="515" as="targetPoint" />
          </mxGeometry>
        </mxCell>
        <mxCell id="rmzS-7ujOIjfE1PjtxYk-45" value="" style="endArrow=none;html=1;rounded=0;" parent="1" edge="1">
          <mxGeometry width="50" height="50" relative="1" as="geometry">
            <mxPoint x="60" y="570" as="sourcePoint" />
            <mxPoint x="320" y="570" as="targetPoint" />
          </mxGeometry>
        </mxCell>
        <mxCell id="rmzS-7ujOIjfE1PjtxYk-46" value="" style="endArrow=none;html=1;rounded=0;" parent="1" edge="1">
          <mxGeometry width="50" height="50" relative="1" as="geometry">
            <mxPoint x="320" y="570" as="sourcePoint" />
            <mxPoint x="320" y="515" as="targetPoint" />
          </mxGeometry>
        </mxCell>
        <mxCell id="rmzS-7ujOIjfE1PjtxYk-47" value="" style="endArrow=none;html=1;rounded=0;" parent="1" edge="1">
          <mxGeometry width="50" height="50" relative="1" as="geometry">
            <mxPoint x="330" y="640" as="sourcePoint" />
            <mxPoint x="330" y="480" as="targetPoint" />
          </mxGeometry>
        </mxCell>
        <mxCell id="rmzS-7ujOIjfE1PjtxYk-48" value="" style="endArrow=none;html=1;rounded=0;" parent="1" edge="1">
          <mxGeometry width="50" height="50" relative="1" as="geometry">
            <mxPoint x="330" y="640" as="sourcePoint" />
            <mxPoint x="440" y="640" as="targetPoint" />
          </mxGeometry>
        </mxCell>
        <mxCell id="rmzS-7ujOIjfE1PjtxYk-52" value="authorisation" style="swimlane;whiteSpace=wrap;html=1;" parent="1" vertex="1">
          <mxGeometry x="660" y="540" width="200" height="200" as="geometry" />
        </mxCell>
        <mxCell id="rmzS-7ujOIjfE1PjtxYk-53" value="id" style="text;html=1;align=center;verticalAlign=middle;resizable=0;points=[];autosize=1;strokeColor=none;fillColor=none;" parent="rmzS-7ujOIjfE1PjtxYk-52" vertex="1">
          <mxGeometry x="85" y="28" width="30" height="30" as="geometry" />
        </mxCell>
        <mxCell id="rmzS-7ujOIjfE1PjtxYk-54" value="username" style="text;html=1;align=center;verticalAlign=middle;resizable=0;points=[];autosize=1;strokeColor=none;fillColor=none;" parent="rmzS-7ujOIjfE1PjtxYk-52" vertex="1">
          <mxGeometry x="60" y="50" width="80" height="30" as="geometry" />
        </mxCell>
        <mxCell id="rmzS-7ujOIjfE1PjtxYk-55" value="password" style="text;html=1;align=center;verticalAlign=middle;resizable=0;points=[];autosize=1;strokeColor=none;fillColor=none;" parent="rmzS-7ujOIjfE1PjtxYk-52" vertex="1">
          <mxGeometry x="65" y="70" width="70" height="30" as="geometry" />
        </mxCell>
        <mxCell id="rmzS-7ujOIjfE1PjtxYk-56" value="email" style="text;html=1;align=center;verticalAlign=middle;resizable=0;points=[];autosize=1;strokeColor=none;fillColor=none;" parent="rmzS-7ujOIjfE1PjtxYk-52" vertex="1">
          <mxGeometry x="75" y="100" width="50" height="30" as="geometry" />
        </mxCell>
        <mxCell id="rmzS-7ujOIjfE1PjtxYk-57" value="entity_type" style="text;html=1;align=center;verticalAlign=middle;resizable=0;points=[];autosize=1;strokeColor=none;fillColor=none;" parent="rmzS-7ujOIjfE1PjtxYk-52" vertex="1">
          <mxGeometry x="60" y="147" width="80" height="30" as="geometry" />
        </mxCell>
        <mxCell id="rmzS-7ujOIjfE1PjtxYk-58" value="entity_id" style="text;html=1;align=center;verticalAlign=middle;resizable=0;points=[];autosize=1;strokeColor=none;fillColor=none;" parent="rmzS-7ujOIjfE1PjtxYk-52" vertex="1">
          <mxGeometry x="65" y="126" width="70" height="30" as="geometry" />
        </mxCell>
        <mxCell id="rmzS-7ujOIjfE1PjtxYk-59" value="phone_number" style="text;html=1;align=center;verticalAlign=middle;resizable=0;points=[];autosize=1;strokeColor=none;fillColor=none;" parent="rmzS-7ujOIjfE1PjtxYk-52" vertex="1">
          <mxGeometry x="55" y="170" width="100" height="30" as="geometry" />
        </mxCell>
        <mxCell id="rmzS-7ujOIjfE1PjtxYk-62" value="" style="endArrow=none;html=1;rounded=0;" parent="1" edge="1">
          <mxGeometry width="50" height="50" relative="1" as="geometry">
            <mxPoint x="560" y="680" as="sourcePoint" />
            <mxPoint x="560" y="280" as="targetPoint" />
          </mxGeometry>
        </mxCell>
        <mxCell id="rmzS-7ujOIjfE1PjtxYk-65" value="" style="endArrow=none;html=1;rounded=0;" parent="1" edge="1">
          <mxGeometry width="50" height="50" relative="1" as="geometry">
            <mxPoint x="560" y="680" as="sourcePoint" />
            <mxPoint x="660" y="680" as="targetPoint" />
          </mxGeometry>
        </mxCell>
        <mxCell id="rmzS-7ujOIjfE1PjtxYk-66" value="" style="endArrow=none;html=1;rounded=0;" parent="1" edge="1">
          <mxGeometry width="50" height="50" relative="1" as="geometry">
            <mxPoint x="320" y="570" as="sourcePoint" />
            <mxPoint x="540" y="570" as="targetPoint" />
          </mxGeometry>
        </mxCell>
        <mxCell id="rmzS-7ujOIjfE1PjtxYk-67" value="" style="endArrow=none;html=1;rounded=0;" parent="1" edge="1">
          <mxGeometry width="50" height="50" relative="1" as="geometry">
            <mxPoint x="540" y="700" as="sourcePoint" />
            <mxPoint x="540" y="570" as="targetPoint" />
          </mxGeometry>
        </mxCell>
        <mxCell id="rmzS-7ujOIjfE1PjtxYk-68" value="" style="endArrow=none;html=1;rounded=0;" parent="1" edge="1">
          <mxGeometry width="50" height="50" relative="1" as="geometry">
            <mxPoint x="540" y="700" as="sourcePoint" />
            <mxPoint x="660" y="700" as="targetPoint" />
          </mxGeometry>
        </mxCell>
        <mxCell id="rmzS-7ujOIjfE1PjtxYk-69" value="" style="endArrow=none;html=1;rounded=0;" parent="1" edge="1">
          <mxGeometry width="50" height="50" relative="1" as="geometry">
            <mxPoint x="440" y="640" as="sourcePoint" />
            <mxPoint x="560" y="640" as="targetPoint" />
          </mxGeometry>
        </mxCell>
        <mxCell id="rmzS-7ujOIjfE1PjtxYk-73" value="images" style="swimlane;whiteSpace=wrap;html=1;" parent="1" vertex="1">
          <mxGeometry x="10" y="670" width="200" height="130" as="geometry" />
        </mxCell>
        <mxCell id="rmzS-7ujOIjfE1PjtxYk-74" value="id" style="text;html=1;align=center;verticalAlign=middle;resizable=0;points=[];autosize=1;strokeColor=none;fillColor=none;" parent="rmzS-7ujOIjfE1PjtxYk-73" vertex="1">
          <mxGeometry x="85" y="26" width="30" height="30" as="geometry" />
        </mxCell>
        <mxCell id="rmzS-7ujOIjfE1PjtxYk-77" value="url" style="text;html=1;align=center;verticalAlign=middle;resizable=0;points=[];autosize=1;strokeColor=none;fillColor=none;" parent="rmzS-7ujOIjfE1PjtxYk-73" vertex="1">
          <mxGeometry x="80" y="100" width="40" height="30" as="geometry" />
        </mxCell>
        <mxCell id="rmzS-7ujOIjfE1PjtxYk-75" value="entity_type" style="text;html=1;align=center;verticalAlign=middle;resizable=0;points=[];autosize=1;strokeColor=none;fillColor=none;" parent="1" vertex="1">
          <mxGeometry x="70" y="718" width="80" height="30" as="geometry" />
        </mxCell>
        <mxCell id="rmzS-7ujOIjfE1PjtxYk-76" value="entity_id" style="text;html=1;align=center;verticalAlign=middle;resizable=0;points=[];autosize=1;strokeColor=none;fillColor=none;" parent="1" vertex="1">
          <mxGeometry x="75" y="740" width="70" height="30" as="geometry" />
        </mxCell>
        <mxCell id="rmzS-7ujOIjfE1PjtxYk-78" value="" style="endArrow=none;html=1;rounded=0;" parent="1" edge="1">
          <mxGeometry width="50" height="50" relative="1" as="geometry">
            <mxPoint x="210" y="730" as="sourcePoint" />
            <mxPoint x="240" y="730" as="targetPoint" />
          </mxGeometry>
        </mxCell>
        <mxCell id="rmzS-7ujOIjfE1PjtxYk-79" value="" style="endArrow=none;html=1;rounded=0;" parent="1" edge="1">
          <mxGeometry width="50" height="50" relative="1" as="geometry">
            <mxPoint x="240" y="730" as="sourcePoint" />
            <mxPoint x="240" y="570" as="targetPoint" />
          </mxGeometry>
        </mxCell>
        <mxCell id="rmzS-7ujOIjfE1PjtxYk-80" value="" style="endArrow=none;html=1;rounded=0;" parent="1" edge="1">
          <mxGeometry width="50" height="50" relative="1" as="geometry">
            <mxPoint x="210" y="750" as="sourcePoint" />
            <mxPoint x="280" y="750" as="targetPoint" />
          </mxGeometry>
        </mxCell>
        <mxCell id="rmzS-7ujOIjfE1PjtxYk-81" value="" style="endArrow=none;html=1;rounded=0;" parent="1" edge="1">
          <mxGeometry width="50" height="50" relative="1" as="geometry">
            <mxPoint x="280" y="750" as="sourcePoint" />
            <mxPoint x="280" y="600" as="targetPoint" />
          </mxGeometry>
        </mxCell>
        <mxCell id="rmzS-7ujOIjfE1PjtxYk-84" value="" style="endArrow=none;html=1;rounded=0;" parent="1" edge="1">
          <mxGeometry width="50" height="50" relative="1" as="geometry">
            <mxPoint x="280" y="600" as="sourcePoint" />
            <mxPoint x="340" y="600" as="targetPoint" />
          </mxGeometry>
        </mxCell>
        <mxCell id="rmzS-7ujOIjfE1PjtxYk-85" value="" style="endArrow=none;html=1;rounded=0;" parent="1" edge="1">
          <mxGeometry width="50" height="50" relative="1" as="geometry">
            <mxPoint x="340" y="600" as="sourcePoint" />
            <mxPoint x="340" y="290" as="targetPoint" />
          </mxGeometry>
        </mxCell>
        <mxCell id="rmzS-7ujOIjfE1PjtxYk-86" value="" style="endArrow=none;html=1;rounded=0;" parent="1" edge="1">
          <mxGeometry width="50" height="50" relative="1" as="geometry">
            <mxPoint x="340" y="290" as="sourcePoint" />
            <mxPoint x="440" y="290" as="targetPoint" />
          </mxGeometry>
        </mxCell>
        <mxCell id="rmzS-7ujOIjfE1PjtxYk-87" value="menu" style="swimlane;whiteSpace=wrap;html=1;" parent="1" vertex="1">
          <mxGeometry x="370" y="920" width="200" height="110" as="geometry" />
        </mxCell>
        <mxCell id="rmzS-7ujOIjfE1PjtxYk-88" value="id" style="text;html=1;align=center;verticalAlign=middle;resizable=0;points=[];autosize=1;strokeColor=none;fillColor=none;" parent="rmzS-7ujOIjfE1PjtxYk-87" vertex="1">
          <mxGeometry x="85" y="20" width="30" height="30" as="geometry" />
        </mxCell>
        <mxCell id="rmzS-7ujOIjfE1PjtxYk-89" value="meal_id" style="text;html=1;align=center;verticalAlign=middle;resizable=0;points=[];autosize=1;strokeColor=none;fillColor=none;" parent="rmzS-7ujOIjfE1PjtxYk-87" vertex="1">
          <mxGeometry x="65" y="40" width="70" height="30" as="geometry" />
        </mxCell>
        <mxCell id="rmzS-7ujOIjfE1PjtxYk-98" value="restaurant_id" style="text;html=1;align=center;verticalAlign=middle;resizable=0;points=[];autosize=1;strokeColor=none;fillColor=none;" parent="rmzS-7ujOIjfE1PjtxYk-87" vertex="1">
          <mxGeometry x="55" y="60" width="90" height="30" as="geometry" />
        </mxCell>
        <mxCell id="rmzS-7ujOIjfE1PjtxYk-104" value="category_id" style="text;html=1;align=center;verticalAlign=middle;resizable=0;points=[];autosize=1;strokeColor=none;fillColor=none;" parent="rmzS-7ujOIjfE1PjtxYk-87" vertex="1">
          <mxGeometry x="55" y="80" width="90" height="30" as="geometry" />
        </mxCell>
        <mxCell id="rmzS-7ujOIjfE1PjtxYk-91" value="meal" style="swimlane;whiteSpace=wrap;html=1;" parent="1" vertex="1">
          <mxGeometry x="650" y="860" width="200" height="80" as="geometry" />
        </mxCell>
        <mxCell id="rmzS-7ujOIjfE1PjtxYk-92" value="id" style="text;html=1;align=center;verticalAlign=middle;resizable=0;points=[];autosize=1;strokeColor=none;fillColor=none;" parent="rmzS-7ujOIjfE1PjtxYk-91" vertex="1">
          <mxGeometry x="85" y="30" width="30" height="30" as="geometry" />
        </mxCell>
        <mxCell id="rmzS-7ujOIjfE1PjtxYk-93" value="type" style="text;html=1;align=center;verticalAlign=middle;resizable=0;points=[];autosize=1;strokeColor=none;fillColor=none;" parent="rmzS-7ujOIjfE1PjtxYk-91" vertex="1">
          <mxGeometry x="75" y="50" width="50" height="30" as="geometry" />
        </mxCell>
        <mxCell id="rmzS-7ujOIjfE1PjtxYk-95" value="" style="endArrow=none;html=1;rounded=0;" parent="1" edge="1">
          <mxGeometry width="50" height="50" relative="1" as="geometry">
            <mxPoint x="610" y="970" as="sourcePoint" />
            <mxPoint x="610" y="840" as="targetPoint" />
          </mxGeometry>
        </mxCell>
        <mxCell id="rmzS-7ujOIjfE1PjtxYk-96" value="" style="endArrow=none;html=1;rounded=0;" parent="1" edge="1">
          <mxGeometry width="50" height="50" relative="1" as="geometry">
            <mxPoint x="610" y="840" as="sourcePoint" />
            <mxPoint x="750" y="840" as="targetPoint" />
          </mxGeometry>
        </mxCell>
        <mxCell id="rmzS-7ujOIjfE1PjtxYk-97" value="" style="endArrow=none;html=1;rounded=0;exitX=0.5;exitY=0;exitDx=0;exitDy=0;" parent="1" source="rmzS-7ujOIjfE1PjtxYk-91" edge="1">
          <mxGeometry width="50" height="50" relative="1" as="geometry">
            <mxPoint x="580" y="980" as="sourcePoint" />
            <mxPoint x="750" y="840" as="targetPoint" />
          </mxGeometry>
        </mxCell>
        <mxCell id="rmzS-7ujOIjfE1PjtxYk-99" value="" style="endArrow=none;html=1;rounded=0;exitX=0.552;exitY=0.006;exitDx=0;exitDy=0;exitPerimeter=0;" parent="1" source="rmzS-7ujOIjfE1PjtxYk-35" edge="1">
          <mxGeometry width="50" height="50" relative="1" as="geometry">
            <mxPoint x="470" y="690" as="sourcePoint" />
            <mxPoint x="440" y="640" as="targetPoint" />
          </mxGeometry>
        </mxCell>
        <mxCell id="rmzS-7ujOIjfE1PjtxYk-100" value="" style="endArrow=none;html=1;rounded=0;entryX=0.002;entryY=0.039;entryDx=0;entryDy=0;entryPerimeter=0;" parent="1" target="rmzS-7ujOIjfE1PjtxYk-35" edge="1">
          <mxGeometry width="50" height="50" relative="1" as="geometry">
            <mxPoint x="280" y="680" as="sourcePoint" />
            <mxPoint x="520" y="640" as="targetPoint" />
          </mxGeometry>
        </mxCell>
        <mxCell id="rmzS-7ujOIjfE1PjtxYk-101" value="" style="endArrow=none;html=1;rounded=0;" parent="1" edge="1">
          <mxGeometry width="50" height="50" relative="1" as="geometry">
            <mxPoint x="370" y="1000" as="sourcePoint" />
            <mxPoint x="300" y="1000" as="targetPoint" />
          </mxGeometry>
        </mxCell>
        <mxCell id="rmzS-7ujOIjfE1PjtxYk-102" value="" style="endArrow=none;html=1;rounded=0;" parent="1" edge="1">
          <mxGeometry width="50" height="50" relative="1" as="geometry">
            <mxPoint x="300" y="1000" as="sourcePoint" />
            <mxPoint x="300" y="680" as="targetPoint" />
          </mxGeometry>
        </mxCell>
        <mxCell id="rmzS-7ujOIjfE1PjtxYk-103" value="category" style="swimlane;whiteSpace=wrap;html=1;" parent="1" vertex="1">
          <mxGeometry x="660" y="1000" width="200" height="90" as="geometry" />
        </mxCell>
        <mxCell id="rmzS-7ujOIjfE1PjtxYk-105" value="id" style="text;html=1;align=center;verticalAlign=middle;resizable=0;points=[];autosize=1;strokeColor=none;fillColor=none;" parent="rmzS-7ujOIjfE1PjtxYk-103" vertex="1">
          <mxGeometry x="85" y="30" width="30" height="30" as="geometry" />
        </mxCell>
        <mxCell id="rmzS-7ujOIjfE1PjtxYk-106" value="type" style="text;html=1;align=center;verticalAlign=middle;resizable=0;points=[];autosize=1;strokeColor=none;fillColor=none;" parent="rmzS-7ujOIjfE1PjtxYk-103" vertex="1">
          <mxGeometry x="75" y="58" width="50" height="30" as="geometry" />
        </mxCell>
        <mxCell id="rmzS-7ujOIjfE1PjtxYk-107" value="" style="endArrow=none;html=1;rounded=0;entryX=-0.005;entryY=0.098;entryDx=0;entryDy=0;entryPerimeter=0;" parent="1" target="rmzS-7ujOIjfE1PjtxYk-103" edge="1">
          <mxGeometry width="50" height="50" relative="1" as="geometry">
            <mxPoint x="570" y="1010" as="sourcePoint" />
            <mxPoint x="660" y="990" as="targetPoint" />
          </mxGeometry>
        </mxCell>
        <mxCell id="rmzS-7ujOIjfE1PjtxYk-108" value="" style="endArrow=none;html=1;rounded=0;" parent="1" edge="1">
          <mxGeometry width="50" height="50" relative="1" as="geometry">
            <mxPoint x="570" y="970" as="sourcePoint" />
            <mxPoint x="610" y="970" as="targetPoint" />
          </mxGeometry>
        </mxCell>
        <mxCell id="rmzS-7ujOIjfE1PjtxYk-109" value="item" style="swimlane;whiteSpace=wrap;html=1;" parent="1" vertex="1">
          <mxGeometry x="-40" y="1030" width="200" height="150" as="geometry" />
        </mxCell>
        <mxCell id="rmzS-7ujOIjfE1PjtxYk-110" value="id" style="text;html=1;align=center;verticalAlign=middle;resizable=0;points=[];autosize=1;strokeColor=none;fillColor=none;" parent="rmzS-7ujOIjfE1PjtxYk-109" vertex="1">
          <mxGeometry x="80" y="20" width="30" height="30" as="geometry" />
        </mxCell>
        <mxCell id="rmzS-7ujOIjfE1PjtxYk-111" value="name" style="text;html=1;align=center;verticalAlign=middle;resizable=0;points=[];autosize=1;strokeColor=none;fillColor=none;" parent="rmzS-7ujOIjfE1PjtxYk-109" vertex="1">
          <mxGeometry x="70" y="40" width="50" height="30" as="geometry" />
        </mxCell>
        <mxCell id="rmzS-7ujOIjfE1PjtxYk-112" value="category_id" style="text;html=1;align=center;verticalAlign=middle;resizable=0;points=[];autosize=1;strokeColor=none;fillColor=none;" parent="rmzS-7ujOIjfE1PjtxYk-109" vertex="1">
          <mxGeometry x="55" y="60" width="90" height="30" as="geometry" />
        </mxCell>
        <mxCell id="rmzS-7ujOIjfE1PjtxYk-115" value="price" style="text;html=1;align=center;verticalAlign=middle;resizable=0;points=[];autosize=1;strokeColor=none;fillColor=none;" parent="rmzS-7ujOIjfE1PjtxYk-109" vertex="1">
          <mxGeometry x="70" y="78" width="50" height="30" as="geometry" />
        </mxCell>
        <mxCell id="rmzS-7ujOIjfE1PjtxYk-138" value="quantity" style="text;html=1;align=center;verticalAlign=middle;resizable=0;points=[];autosize=1;strokeColor=none;fillColor=none;" parent="rmzS-7ujOIjfE1PjtxYk-109" vertex="1">
          <mxGeometry x="65" y="100" width="70" height="30" as="geometry" />
        </mxCell>
        <mxCell id="rmzS-7ujOIjfE1PjtxYk-358" value="menu_id" style="text;html=1;align=center;verticalAlign=middle;resizable=0;points=[];autosize=1;strokeColor=none;fillColor=none;" parent="rmzS-7ujOIjfE1PjtxYk-109" vertex="1">
          <mxGeometry x="60" y="120" width="70" height="30" as="geometry" />
        </mxCell>
        <mxCell id="rmzS-7ujOIjfE1PjtxYk-113" value="" style="endArrow=none;html=1;rounded=0;" parent="1" edge="1">
          <mxGeometry width="50" height="50" relative="1" as="geometry">
            <mxPoint x="160" y="1100" as="sourcePoint" />
            <mxPoint x="640" y="1100" as="targetPoint" />
          </mxGeometry>
        </mxCell>
        <mxCell id="rmzS-7ujOIjfE1PjtxYk-114" value="" style="endArrow=none;html=1;rounded=0;" parent="1" edge="1">
          <mxGeometry width="50" height="50" relative="1" as="geometry">
            <mxPoint x="640" y="1100" as="sourcePoint" />
            <mxPoint x="640" y="1010" as="targetPoint" />
          </mxGeometry>
        </mxCell>
        <mxCell id="rmzS-7ujOIjfE1PjtxYk-116" value="feedback" style="swimlane;whiteSpace=wrap;html=1;" parent="1" vertex="1">
          <mxGeometry x="-30" y="820" width="200" height="140" as="geometry" />
        </mxCell>
        <mxCell id="rmzS-7ujOIjfE1PjtxYk-117" value="id" style="text;html=1;align=center;verticalAlign=middle;resizable=0;points=[];autosize=1;strokeColor=none;fillColor=none;" parent="rmzS-7ujOIjfE1PjtxYk-116" vertex="1">
          <mxGeometry x="85" y="20" width="30" height="30" as="geometry" />
        </mxCell>
        <mxCell id="rmzS-7ujOIjfE1PjtxYk-118" value="text" style="text;html=1;align=center;verticalAlign=middle;resizable=0;points=[];autosize=1;strokeColor=none;fillColor=none;" parent="rmzS-7ujOIjfE1PjtxYk-116" vertex="1">
          <mxGeometry x="80" y="40" width="40" height="30" as="geometry" />
        </mxCell>
        <mxCell id="rmzS-7ujOIjfE1PjtxYk-119" value="stars" style="text;html=1;align=center;verticalAlign=middle;resizable=0;points=[];autosize=1;strokeColor=none;fillColor=none;" parent="rmzS-7ujOIjfE1PjtxYk-116" vertex="1">
          <mxGeometry x="75" y="60" width="50" height="30" as="geometry" />
        </mxCell>
        <mxCell id="rmzS-7ujOIjfE1PjtxYk-121" value="entity_type" style="text;html=1;align=center;verticalAlign=middle;resizable=0;points=[];autosize=1;strokeColor=none;fillColor=none;" parent="rmzS-7ujOIjfE1PjtxYk-116" vertex="1">
          <mxGeometry x="60" y="87" width="80" height="30" as="geometry" />
        </mxCell>
        <mxCell id="rmzS-7ujOIjfE1PjtxYk-122" value="entity_id" style="text;html=1;align=center;verticalAlign=middle;resizable=0;points=[];autosize=1;strokeColor=none;fillColor=none;" parent="rmzS-7ujOIjfE1PjtxYk-116" vertex="1">
          <mxGeometry x="60" y="111" width="70" height="30" as="geometry" />
        </mxCell>
        <mxCell id="rmzS-7ujOIjfE1PjtxYk-124" value="" style="endArrow=none;html=1;rounded=0;" parent="1" edge="1">
          <mxGeometry width="50" height="50" relative="1" as="geometry">
            <mxPoint x="-200" y="870" as="sourcePoint" />
            <mxPoint x="-200" y="478" as="targetPoint" />
          </mxGeometry>
        </mxCell>
        <mxCell id="rmzS-7ujOIjfE1PjtxYk-125" value="" style="endArrow=none;html=1;rounded=0;" parent="1" edge="1">
          <mxGeometry width="50" height="50" relative="1" as="geometry">
            <mxPoint x="-200" y="870" as="sourcePoint" />
            <mxPoint x="-80" y="870" as="targetPoint" />
          </mxGeometry>
        </mxCell>
        <mxCell id="rmzS-7ujOIjfE1PjtxYk-126" value="" style="endArrow=none;html=1;rounded=0;" parent="1" edge="1">
          <mxGeometry width="50" height="50" relative="1" as="geometry">
            <mxPoint x="-80" y="930" as="sourcePoint" />
            <mxPoint x="-80" y="870" as="targetPoint" />
          </mxGeometry>
        </mxCell>
        <mxCell id="rmzS-7ujOIjfE1PjtxYk-127" value="" style="endArrow=none;html=1;rounded=0;" parent="1" edge="1">
          <mxGeometry width="50" height="50" relative="1" as="geometry">
            <mxPoint x="-80" y="930" as="sourcePoint" />
            <mxPoint x="-30" y="930" as="targetPoint" />
          </mxGeometry>
        </mxCell>
        <mxCell id="rmzS-7ujOIjfE1PjtxYk-128" value="" style="endArrow=none;html=1;rounded=0;" parent="1" edge="1">
          <mxGeometry width="50" height="50" relative="1" as="geometry">
            <mxPoint x="-200" y="480" as="sourcePoint" />
            <mxPoint x="-60" y="480" as="targetPoint" />
          </mxGeometry>
        </mxCell>
        <mxCell id="rmzS-7ujOIjfE1PjtxYk-129" value="" style="endArrow=none;html=1;rounded=0;" parent="1" source="rmzS-7ujOIjfE1PjtxYk-40" edge="1">
          <mxGeometry width="50" height="50" relative="1" as="geometry">
            <mxPoint x="-160" y="550" as="sourcePoint" />
            <mxPoint x="-60" y="480" as="targetPoint" />
          </mxGeometry>
        </mxCell>
        <mxCell id="rmzS-7ujOIjfE1PjtxYk-130" value="" style="endArrow=none;html=1;rounded=0;" parent="1" edge="1">
          <mxGeometry width="50" height="50" relative="1" as="geometry">
            <mxPoint x="170" y="940" as="sourcePoint" />
            <mxPoint x="320" y="940" as="targetPoint" />
          </mxGeometry>
        </mxCell>
        <mxCell id="rmzS-7ujOIjfE1PjtxYk-131" value="" style="endArrow=none;html=1;rounded=0;" parent="1" edge="1">
          <mxGeometry width="50" height="50" relative="1" as="geometry">
            <mxPoint x="320" y="940" as="sourcePoint" />
            <mxPoint x="320" y="680" as="targetPoint" />
          </mxGeometry>
        </mxCell>
        <mxCell id="rmzS-7ujOIjfE1PjtxYk-132" value="" style="endArrow=none;html=1;rounded=0;" parent="1" edge="1">
          <mxGeometry width="50" height="50" relative="1" as="geometry">
            <mxPoint x="200" y="1000" as="sourcePoint" />
            <mxPoint x="200" y="940" as="targetPoint" />
          </mxGeometry>
        </mxCell>
        <mxCell id="rmzS-7ujOIjfE1PjtxYk-133" value="" style="endArrow=none;html=1;rounded=0;" parent="1" edge="1">
          <mxGeometry width="50" height="50" relative="1" as="geometry">
            <mxPoint x="60" y="1000" as="sourcePoint" />
            <mxPoint x="200" y="1000" as="targetPoint" />
          </mxGeometry>
        </mxCell>
        <mxCell id="rmzS-7ujOIjfE1PjtxYk-134" value="" style="endArrow=none;html=1;rounded=0;exitX=0.5;exitY=0;exitDx=0;exitDy=0;" parent="1" source="rmzS-7ujOIjfE1PjtxYk-109" edge="1">
          <mxGeometry width="50" height="50" relative="1" as="geometry">
            <mxPoint x="190" y="1090" as="sourcePoint" />
            <mxPoint x="60" y="1000" as="targetPoint" />
          </mxGeometry>
        </mxCell>
        <mxCell id="rmzS-7ujOIjfE1PjtxYk-135" value="" style="endArrow=none;html=1;rounded=0;" parent="1" edge="1">
          <mxGeometry width="50" height="50" relative="1" as="geometry">
            <mxPoint x="280" y="1010" as="sourcePoint" />
            <mxPoint x="280" y="750" as="targetPoint" />
          </mxGeometry>
        </mxCell>
        <mxCell id="rmzS-7ujOIjfE1PjtxYk-136" value="" style="endArrow=none;html=1;rounded=0;" parent="1" edge="1">
          <mxGeometry width="50" height="50" relative="1" as="geometry">
            <mxPoint x="60" y="1010" as="sourcePoint" />
            <mxPoint x="280" y="1010" as="targetPoint" />
          </mxGeometry>
        </mxCell>
        <mxCell id="rmzS-7ujOIjfE1PjtxYk-139" value="order" style="swimlane;whiteSpace=wrap;html=1;" parent="1" vertex="1">
          <mxGeometry x="-430" y="1040" width="200" height="140" as="geometry" />
        </mxCell>
        <mxCell id="rmzS-7ujOIjfE1PjtxYk-140" value="id" style="text;html=1;align=center;verticalAlign=middle;resizable=0;points=[];autosize=1;strokeColor=none;fillColor=none;" parent="rmzS-7ujOIjfE1PjtxYk-139" vertex="1">
          <mxGeometry x="85" y="30" width="30" height="30" as="geometry" />
        </mxCell>
        <mxCell id="rmzS-7ujOIjfE1PjtxYk-144" value="coupon_id" style="text;html=1;align=center;verticalAlign=middle;resizable=0;points=[];autosize=1;strokeColor=none;fillColor=none;" parent="rmzS-7ujOIjfE1PjtxYk-139" vertex="1">
          <mxGeometry x="60" y="54" width="80" height="30" as="geometry" />
        </mxCell>
        <mxCell id="rmzS-7ujOIjfE1PjtxYk-145" value="total_price" style="text;html=1;align=center;verticalAlign=middle;resizable=0;points=[];autosize=1;strokeColor=none;fillColor=none;" parent="rmzS-7ujOIjfE1PjtxYk-139" vertex="1">
          <mxGeometry x="60" y="70" width="80" height="30" as="geometry" />
        </mxCell>
        <mxCell id="rmzS-7ujOIjfE1PjtxYk-146" value="user_id" style="text;html=1;align=center;verticalAlign=middle;resizable=0;points=[];autosize=1;strokeColor=none;fillColor=none;" parent="rmzS-7ujOIjfE1PjtxYk-139" vertex="1">
          <mxGeometry x="70" y="88" width="60" height="30" as="geometry" />
        </mxCell>
        <mxCell id="rmzS-7ujOIjfE1PjtxYk-147" value="status" style="text;html=1;align=center;verticalAlign=middle;resizable=0;points=[];autosize=1;strokeColor=none;fillColor=none;" parent="rmzS-7ujOIjfE1PjtxYk-139" vertex="1">
          <mxGeometry x="70" y="108" width="60" height="30" as="geometry" />
        </mxCell>
        <mxCell id="rmzS-7ujOIjfE1PjtxYk-142" value="" style="endArrow=none;html=1;rounded=0;" parent="1" edge="1">
          <mxGeometry width="50" height="50" relative="1" as="geometry">
            <mxPoint x="-60" y="520" as="sourcePoint" />
            <mxPoint x="60" y="520" as="targetPoint" />
          </mxGeometry>
        </mxCell>
        <mxCell id="rmzS-7ujOIjfE1PjtxYk-143" value="" style="endArrow=none;html=1;rounded=0;" parent="1" edge="1">
          <mxGeometry width="50" height="50" relative="1" as="geometry">
            <mxPoint x="60" y="570" as="sourcePoint" />
            <mxPoint x="60" y="520" as="targetPoint" />
          </mxGeometry>
        </mxCell>
        <mxCell id="rmzS-7ujOIjfE1PjtxYk-148" value="coupon" style="swimlane;whiteSpace=wrap;html=1;" parent="1" vertex="1">
          <mxGeometry x="-540" y="1290" width="200" height="80" as="geometry" />
        </mxCell>
        <mxCell id="rmzS-7ujOIjfE1PjtxYk-149" value="id" style="text;html=1;align=center;verticalAlign=middle;resizable=0;points=[];autosize=1;strokeColor=none;fillColor=none;" parent="rmzS-7ujOIjfE1PjtxYk-148" vertex="1">
          <mxGeometry x="85" y="30" width="30" height="30" as="geometry" />
        </mxCell>
        <mxCell id="rmzS-7ujOIjfE1PjtxYk-150" value="value" style="text;html=1;align=center;verticalAlign=middle;resizable=0;points=[];autosize=1;strokeColor=none;fillColor=none;" parent="rmzS-7ujOIjfE1PjtxYk-148" vertex="1">
          <mxGeometry x="75" y="50" width="50" height="30" as="geometry" />
        </mxCell>
        <mxCell id="rmzS-7ujOIjfE1PjtxYk-151" value="" style="endArrow=none;html=1;rounded=0;" parent="1" edge="1">
          <mxGeometry width="50" height="50" relative="1" as="geometry">
            <mxPoint x="-480" y="1110" as="sourcePoint" />
            <mxPoint x="-430" y="1110" as="targetPoint" />
          </mxGeometry>
        </mxCell>
        <mxCell id="rmzS-7ujOIjfE1PjtxYk-152" value="" style="endArrow=none;html=1;rounded=0;exitX=0.5;exitY=0;exitDx=0;exitDy=0;" parent="1" source="rmzS-7ujOIjfE1PjtxYk-148" edge="1">
          <mxGeometry width="50" height="50" relative="1" as="geometry">
            <mxPoint x="-270" y="1460" as="sourcePoint" />
            <mxPoint x="-440" y="1250" as="targetPoint" />
          </mxGeometry>
        </mxCell>
        <mxCell id="rmzS-7ujOIjfE1PjtxYk-153" value="" style="endArrow=none;html=1;rounded=0;" parent="1" edge="1">
          <mxGeometry width="50" height="50" relative="1" as="geometry">
            <mxPoint x="-480" y="1250" as="sourcePoint" />
            <mxPoint x="-440" y="1250" as="targetPoint" />
          </mxGeometry>
        </mxCell>
        <mxCell id="rmzS-7ujOIjfE1PjtxYk-155" value="" style="endArrow=none;html=1;rounded=0;exitX=1;exitY=0.75;exitDx=0;exitDy=0;" parent="1" source="rmzS-7ujOIjfE1PjtxYk-139" edge="1">
          <mxGeometry width="50" height="50" relative="1" as="geometry">
            <mxPoint x="-110" y="1050" as="sourcePoint" />
            <mxPoint x="-170" y="1145" as="targetPoint" />
          </mxGeometry>
        </mxCell>
        <mxCell id="rmzS-7ujOIjfE1PjtxYk-156" value="" style="endArrow=none;html=1;rounded=0;" parent="1" edge="1">
          <mxGeometry width="50" height="50" relative="1" as="geometry">
            <mxPoint x="-170" y="1145" as="sourcePoint" />
            <mxPoint x="-170" y="280" as="targetPoint" />
          </mxGeometry>
        </mxCell>
        <mxCell id="rmzS-7ujOIjfE1PjtxYk-157" value="" style="endArrow=none;html=1;rounded=0;" parent="1" edge="1">
          <mxGeometry width="50" height="50" relative="1" as="geometry">
            <mxPoint x="-170" y="280" as="sourcePoint" />
            <mxPoint x="310" y="280" as="targetPoint" />
          </mxGeometry>
        </mxCell>
        <mxCell id="rmzS-7ujOIjfE1PjtxYk-158" value="order_items" style="swimlane;whiteSpace=wrap;html=1;" parent="1" vertex="1">
          <mxGeometry x="-220" y="1230" width="200" height="140" as="geometry" />
        </mxCell>
        <mxCell id="rmzS-7ujOIjfE1PjtxYk-159" value="id" style="text;html=1;align=center;verticalAlign=middle;resizable=0;points=[];autosize=1;strokeColor=none;fillColor=none;" parent="rmzS-7ujOIjfE1PjtxYk-158" vertex="1">
          <mxGeometry x="85" y="26" width="30" height="30" as="geometry" />
        </mxCell>
        <mxCell id="rmzS-7ujOIjfE1PjtxYk-160" value="order_id" style="text;html=1;align=center;verticalAlign=middle;resizable=0;points=[];autosize=1;strokeColor=none;fillColor=none;" parent="rmzS-7ujOIjfE1PjtxYk-158" vertex="1">
          <mxGeometry x="65" y="47" width="70" height="30" as="geometry" />
        </mxCell>
        <mxCell id="rmzS-7ujOIjfE1PjtxYk-161" value="item_id" style="text;html=1;align=center;verticalAlign=middle;resizable=0;points=[];autosize=1;strokeColor=none;fillColor=none;" parent="rmzS-7ujOIjfE1PjtxYk-158" vertex="1">
          <mxGeometry x="70" y="75" width="60" height="30" as="geometry" />
        </mxCell>
        <mxCell id="rmzS-7ujOIjfE1PjtxYk-162" value="" style="endArrow=none;html=1;rounded=0;" parent="1" edge="1">
          <mxGeometry width="50" height="50" relative="1" as="geometry">
            <mxPoint x="-200" y="1200" as="sourcePoint" />
            <mxPoint x="-280" y="1200" as="targetPoint" />
          </mxGeometry>
        </mxCell>
        <mxCell id="rmzS-7ujOIjfE1PjtxYk-163" value="" style="endArrow=none;html=1;rounded=0;" parent="1" edge="1">
          <mxGeometry width="50" height="50" relative="1" as="geometry">
            <mxPoint x="-280" y="1290" as="sourcePoint" />
            <mxPoint x="-280" y="1200" as="targetPoint" />
          </mxGeometry>
        </mxCell>
        <mxCell id="rmzS-7ujOIjfE1PjtxYk-164" value="" style="endArrow=none;html=1;rounded=0;" parent="1" edge="1">
          <mxGeometry width="50" height="50" relative="1" as="geometry">
            <mxPoint x="-280" y="1290" as="sourcePoint" />
            <mxPoint x="-220" y="1290" as="targetPoint" />
          </mxGeometry>
        </mxCell>
        <mxCell id="rmzS-7ujOIjfE1PjtxYk-165" value="" style="endArrow=none;html=1;rounded=0;" parent="1" edge="1">
          <mxGeometry width="50" height="50" relative="1" as="geometry">
            <mxPoint x="-200" y="1200" as="sourcePoint" />
            <mxPoint x="-200" y="1020" as="targetPoint" />
          </mxGeometry>
        </mxCell>
        <mxCell id="rmzS-7ujOIjfE1PjtxYk-166" value="" style="endArrow=none;html=1;rounded=0;" parent="1" edge="1">
          <mxGeometry width="50" height="50" relative="1" as="geometry">
            <mxPoint x="-330" y="1020" as="sourcePoint" />
            <mxPoint x="-200" y="1020" as="targetPoint" />
          </mxGeometry>
        </mxCell>
        <mxCell id="rmzS-7ujOIjfE1PjtxYk-167" value="" style="endArrow=none;html=1;rounded=0;exitX=0.5;exitY=0;exitDx=0;exitDy=0;" parent="1" source="rmzS-7ujOIjfE1PjtxYk-139" edge="1">
          <mxGeometry width="50" height="50" relative="1" as="geometry">
            <mxPoint x="-160" y="1180" as="sourcePoint" />
            <mxPoint x="-330" y="1020" as="targetPoint" />
          </mxGeometry>
        </mxCell>
        <mxCell id="rmzS-7ujOIjfE1PjtxYk-168" value="" style="endArrow=none;html=1;rounded=0;" parent="1" edge="1">
          <mxGeometry width="50" height="50" relative="1" as="geometry">
            <mxPoint x="-20" y="1320" as="sourcePoint" />
            <mxPoint x="200" y="1320" as="targetPoint" />
          </mxGeometry>
        </mxCell>
        <mxCell id="rmzS-7ujOIjfE1PjtxYk-169" value="" style="endArrow=none;html=1;rounded=0;" parent="1" edge="1">
          <mxGeometry width="50" height="50" relative="1" as="geometry">
            <mxPoint x="200" y="1320" as="sourcePoint" />
            <mxPoint x="200" y="1020" as="targetPoint" />
          </mxGeometry>
        </mxCell>
        <mxCell id="rmzS-7ujOIjfE1PjtxYk-170" value="" style="endArrow=none;html=1;rounded=0;" parent="1" edge="1">
          <mxGeometry width="50" height="50" relative="1" as="geometry">
            <mxPoint x="200" y="1020" as="sourcePoint" />
            <mxPoint x="60" y="1020" as="targetPoint" />
          </mxGeometry>
        </mxCell>
        <mxCell id="rmzS-7ujOIjfE1PjtxYk-171" value="delivery_partner_id" style="text;html=1;align=center;verticalAlign=middle;resizable=0;points=[];autosize=1;strokeColor=none;fillColor=none;" parent="1" vertex="1">
          <mxGeometry x="-185" y="1328" width="130" height="30" as="geometry" />
        </mxCell>
        <mxCell id="rmzS-7ujOIjfE1PjtxYk-172" value="" style="endArrow=none;html=1;rounded=0;" parent="1" edge="1">
          <mxGeometry width="50" height="50" relative="1" as="geometry">
            <mxPoint x="-20" y="1350" as="sourcePoint" />
            <mxPoint x="960" y="1350" as="targetPoint" />
          </mxGeometry>
        </mxCell>
        <mxCell id="rmzS-7ujOIjfE1PjtxYk-173" value="" style="endArrow=none;html=1;rounded=0;" parent="1" edge="1">
          <mxGeometry width="50" height="50" relative="1" as="geometry">
            <mxPoint x="960" y="1350" as="sourcePoint" />
            <mxPoint x="960" y="270" as="targetPoint" />
          </mxGeometry>
        </mxCell>
        <mxCell id="rmzS-7ujOIjfE1PjtxYk-174" value="" style="endArrow=none;html=1;rounded=0;" parent="1" edge="1">
          <mxGeometry width="50" height="50" relative="1" as="geometry">
            <mxPoint x="960" y="270" as="sourcePoint" />
            <mxPoint x="760" y="270" as="targetPoint" />
          </mxGeometry>
        </mxCell>
        <mxCell id="rmzS-7ujOIjfE1PjtxYk-175" value="" style="endArrow=none;html=1;rounded=0;exitX=0.55;exitY=-0.003;exitDx=0;exitDy=0;exitPerimeter=0;" parent="1" source="rmzS-7ujOIjfE1PjtxYk-8" edge="1">
          <mxGeometry width="50" height="50" relative="1" as="geometry">
            <mxPoint x="620" y="550" as="sourcePoint" />
            <mxPoint x="760" y="270" as="targetPoint" />
          </mxGeometry>
        </mxCell>
        <mxCell id="rmzS-7ujOIjfE1PjtxYk-176" value="payment" style="swimlane;whiteSpace=wrap;html=1;" parent="1" vertex="1">
          <mxGeometry x="-600" y="525" width="200" height="200" as="geometry" />
        </mxCell>
        <mxCell id="rmzS-7ujOIjfE1PjtxYk-177" value="id" style="text;html=1;align=center;verticalAlign=middle;resizable=0;points=[];autosize=1;strokeColor=none;fillColor=none;" parent="rmzS-7ujOIjfE1PjtxYk-176" vertex="1">
          <mxGeometry x="85" y="25" width="30" height="30" as="geometry" />
        </mxCell>
        <mxCell id="rmzS-7ujOIjfE1PjtxYk-178" value="gateway_id" style="text;html=1;align=center;verticalAlign=middle;resizable=0;points=[];autosize=1;strokeColor=none;fillColor=none;" parent="rmzS-7ujOIjfE1PjtxYk-176" vertex="1">
          <mxGeometry x="60" y="43" width="80" height="30" as="geometry" />
        </mxCell>
        <mxCell id="rmzS-7ujOIjfE1PjtxYk-186" value="transaction_id_generated" style="text;html=1;align=center;verticalAlign=middle;resizable=0;points=[];autosize=1;strokeColor=none;fillColor=none;" parent="rmzS-7ujOIjfE1PjtxYk-176" vertex="1">
          <mxGeometry x="20" y="65" width="160" height="30" as="geometry" />
        </mxCell>
        <mxCell id="rmzS-7ujOIjfE1PjtxYk-187" value="status" style="text;html=1;align=center;verticalAlign=middle;resizable=0;points=[];autosize=1;strokeColor=none;fillColor=none;" parent="rmzS-7ujOIjfE1PjtxYk-176" vertex="1">
          <mxGeometry x="70" y="95" width="60" height="30" as="geometry" />
        </mxCell>
        <mxCell id="rmzS-7ujOIjfE1PjtxYk-190" value="order_id" style="text;html=1;align=center;verticalAlign=middle;resizable=0;points=[];autosize=1;strokeColor=none;fillColor=none;" parent="rmzS-7ujOIjfE1PjtxYk-176" vertex="1">
          <mxGeometry x="65" y="133" width="70" height="30" as="geometry" />
        </mxCell>
        <mxCell id="rmzS-7ujOIjfE1PjtxYk-191" value="invoice_id" style="text;html=1;align=center;verticalAlign=middle;resizable=0;points=[];autosize=1;strokeColor=none;fillColor=none;" parent="rmzS-7ujOIjfE1PjtxYk-176" vertex="1">
          <mxGeometry x="60" y="163" width="80" height="30" as="geometry" />
        </mxCell>
        <mxCell id="rmzS-7ujOIjfE1PjtxYk-179" value="gateway" style="swimlane;whiteSpace=wrap;html=1;" parent="1" vertex="1">
          <mxGeometry x="-600" y="383" width="200" height="80" as="geometry" />
        </mxCell>
        <mxCell id="rmzS-7ujOIjfE1PjtxYk-180" value="id" style="text;html=1;align=center;verticalAlign=middle;resizable=0;points=[];autosize=1;strokeColor=none;fillColor=none;" parent="rmzS-7ujOIjfE1PjtxYk-179" vertex="1">
          <mxGeometry x="85" y="30" width="30" height="30" as="geometry" />
        </mxCell>
        <mxCell id="rmzS-7ujOIjfE1PjtxYk-181" value="type" style="text;html=1;align=center;verticalAlign=middle;resizable=0;points=[];autosize=1;strokeColor=none;fillColor=none;" parent="rmzS-7ujOIjfE1PjtxYk-179" vertex="1">
          <mxGeometry x="75" y="50" width="50" height="30" as="geometry" />
        </mxCell>
        <mxCell id="rmzS-7ujOIjfE1PjtxYk-182" value="" style="endArrow=none;html=1;rounded=0;" parent="1" edge="1">
          <mxGeometry width="50" height="50" relative="1" as="geometry">
            <mxPoint x="-400" y="580" as="sourcePoint" />
            <mxPoint x="-350" y="580" as="targetPoint" />
          </mxGeometry>
        </mxCell>
        <mxCell id="rmzS-7ujOIjfE1PjtxYk-183" value="" style="endArrow=none;html=1;rounded=0;exitX=0.5;exitY=0;exitDx=0;exitDy=0;" parent="1" source="rmzS-7ujOIjfE1PjtxYk-179" edge="1">
          <mxGeometry width="50" height="50" relative="1" as="geometry">
            <mxPoint x="-360" y="470" as="sourcePoint" />
            <mxPoint x="-500" y="350" as="targetPoint" />
          </mxGeometry>
        </mxCell>
        <mxCell id="rmzS-7ujOIjfE1PjtxYk-184" value="" style="endArrow=none;html=1;rounded=0;" parent="1" edge="1">
          <mxGeometry width="50" height="50" relative="1" as="geometry">
            <mxPoint x="-500" y="350" as="sourcePoint" />
            <mxPoint x="-350" y="350" as="targetPoint" />
          </mxGeometry>
        </mxCell>
        <mxCell id="rmzS-7ujOIjfE1PjtxYk-185" value="" style="endArrow=none;html=1;rounded=0;" parent="1" edge="1">
          <mxGeometry width="50" height="50" relative="1" as="geometry">
            <mxPoint x="-350" y="580" as="sourcePoint" />
            <mxPoint x="-350" y="350" as="targetPoint" />
          </mxGeometry>
        </mxCell>
        <mxCell id="rmzS-7ujOIjfE1PjtxYk-188" value="invoice" style="swimlane;whiteSpace=wrap;html=1;" parent="1" vertex="1">
          <mxGeometry x="-750" y="760" width="200" height="260" as="geometry" />
        </mxCell>
        <mxCell id="rmzS-7ujOIjfE1PjtxYk-202" value="id" style="text;html=1;align=center;verticalAlign=middle;resizable=0;points=[];autosize=1;strokeColor=none;fillColor=none;" parent="rmzS-7ujOIjfE1PjtxYk-188" vertex="1">
          <mxGeometry x="85" y="30" width="30" height="30" as="geometry" />
        </mxCell>
        <mxCell id="rmzS-7ujOIjfE1PjtxYk-204" value="order_id" style="text;html=1;align=center;verticalAlign=middle;resizable=0;points=[];autosize=1;strokeColor=none;fillColor=none;" parent="rmzS-7ujOIjfE1PjtxYk-188" vertex="1">
          <mxGeometry x="65" y="50" width="70" height="30" as="geometry" />
        </mxCell>
        <mxCell id="rmzS-7ujOIjfE1PjtxYk-205" value="customer_id" style="text;html=1;align=center;verticalAlign=middle;resizable=0;points=[];autosize=1;strokeColor=none;fillColor=none;" parent="rmzS-7ujOIjfE1PjtxYk-188" vertex="1">
          <mxGeometry x="55" y="70" width="90" height="30" as="geometry" />
        </mxCell>
        <mxCell id="rmzS-7ujOIjfE1PjtxYk-206" value="invoice_number" style="text;html=1;align=center;verticalAlign=middle;resizable=0;points=[];autosize=1;strokeColor=none;fillColor=none;" parent="rmzS-7ujOIjfE1PjtxYk-188" vertex="1">
          <mxGeometry x="45" y="90" width="110" height="30" as="geometry" />
        </mxCell>
        <mxCell id="rmzS-7ujOIjfE1PjtxYk-207" value="invoice_date" style="text;html=1;align=center;verticalAlign=middle;resizable=0;points=[];autosize=1;strokeColor=none;fillColor=none;" parent="rmzS-7ujOIjfE1PjtxYk-188" vertex="1">
          <mxGeometry x="55" y="110" width="90" height="30" as="geometry" />
        </mxCell>
        <mxCell id="rmzS-7ujOIjfE1PjtxYk-208" value="total_amount" style="text;html=1;align=center;verticalAlign=middle;resizable=0;points=[];autosize=1;strokeColor=none;fillColor=none;" parent="rmzS-7ujOIjfE1PjtxYk-188" vertex="1">
          <mxGeometry x="55" y="130" width="90" height="30" as="geometry" />
        </mxCell>
        <mxCell id="rmzS-7ujOIjfE1PjtxYk-209" value="tax_amount" style="text;html=1;align=center;verticalAlign=middle;resizable=0;points=[];autosize=1;strokeColor=none;fillColor=none;" parent="rmzS-7ujOIjfE1PjtxYk-188" vertex="1">
          <mxGeometry x="55" y="150" width="90" height="30" as="geometry" />
        </mxCell>
        <mxCell id="rmzS-7ujOIjfE1PjtxYk-210" value="payment_mehtod" style="text;html=1;align=center;verticalAlign=middle;resizable=0;points=[];autosize=1;strokeColor=none;fillColor=none;" parent="rmzS-7ujOIjfE1PjtxYk-188" vertex="1">
          <mxGeometry x="40" y="170" width="120" height="30" as="geometry" />
        </mxCell>
        <mxCell id="rmzS-7ujOIjfE1PjtxYk-218" value="billing_address" style="text;html=1;align=center;verticalAlign=middle;resizable=0;points=[];autosize=1;strokeColor=none;fillColor=none;" parent="rmzS-7ujOIjfE1PjtxYk-188" vertex="1">
          <mxGeometry x="50" y="200" width="100" height="30" as="geometry" />
        </mxCell>
        <mxCell id="rmzS-7ujOIjfE1PjtxYk-219" value="shipping_address" style="text;html=1;align=center;verticalAlign=middle;resizable=0;points=[];autosize=1;strokeColor=none;fillColor=none;" parent="rmzS-7ujOIjfE1PjtxYk-188" vertex="1">
          <mxGeometry x="40" y="230" width="120" height="30" as="geometry" />
        </mxCell>
        <mxCell id="rmzS-7ujOIjfE1PjtxYk-196" value="" style="endArrow=none;html=1;rounded=0;" parent="1" edge="1">
          <mxGeometry width="50" height="50" relative="1" as="geometry">
            <mxPoint x="-400" y="670" as="sourcePoint" />
            <mxPoint x="-280" y="670" as="targetPoint" />
          </mxGeometry>
        </mxCell>
        <mxCell id="rmzS-7ujOIjfE1PjtxYk-197" value="" style="endArrow=none;html=1;rounded=0;" parent="1" edge="1">
          <mxGeometry width="50" height="50" relative="1" as="geometry">
            <mxPoint x="-280" y="1020" as="sourcePoint" />
            <mxPoint x="-280" y="670" as="targetPoint" />
          </mxGeometry>
        </mxCell>
        <mxCell id="rmzS-7ujOIjfE1PjtxYk-198" value="" style="endArrow=none;html=1;rounded=0;" parent="1" edge="1">
          <mxGeometry width="50" height="50" relative="1" as="geometry">
            <mxPoint x="-400" y="700" as="sourcePoint" />
            <mxPoint x="-320" y="700" as="targetPoint" />
          </mxGeometry>
        </mxCell>
        <mxCell id="rmzS-7ujOIjfE1PjtxYk-199" value="" style="endArrow=none;html=1;rounded=0;" parent="1" edge="1">
          <mxGeometry width="50" height="50" relative="1" as="geometry">
            <mxPoint x="-320" y="740" as="sourcePoint" />
            <mxPoint x="-320" y="700" as="targetPoint" />
          </mxGeometry>
        </mxCell>
        <mxCell id="rmzS-7ujOIjfE1PjtxYk-200" value="" style="endArrow=none;html=1;rounded=0;" parent="1" edge="1">
          <mxGeometry width="50" height="50" relative="1" as="geometry">
            <mxPoint x="-540" y="740" as="sourcePoint" />
            <mxPoint x="-320" y="740" as="targetPoint" />
          </mxGeometry>
        </mxCell>
        <mxCell id="rmzS-7ujOIjfE1PjtxYk-211" value="" style="endArrow=none;html=1;rounded=0;" parent="1" edge="1">
          <mxGeometry width="50" height="50" relative="1" as="geometry">
            <mxPoint x="-480" y="1250" as="sourcePoint" />
            <mxPoint x="-480" y="1110" as="targetPoint" />
          </mxGeometry>
        </mxCell>
        <mxCell id="rmzS-7ujOIjfE1PjtxYk-215" value="" style="endArrow=none;html=1;rounded=0;exitX=0.5;exitY=0;exitDx=0;exitDy=0;" parent="1" source="rmzS-7ujOIjfE1PjtxYk-188" edge="1">
          <mxGeometry width="50" height="50" relative="1" as="geometry">
            <mxPoint x="-410" y="930" as="sourcePoint" />
            <mxPoint x="-650" y="740" as="targetPoint" />
          </mxGeometry>
        </mxCell>
        <mxCell id="rmzS-7ujOIjfE1PjtxYk-216" value="" style="endArrow=none;html=1;rounded=0;" parent="1" edge="1">
          <mxGeometry width="50" height="50" relative="1" as="geometry">
            <mxPoint x="-650" y="740" as="sourcePoint" />
            <mxPoint x="-540" y="740" as="targetPoint" />
          </mxGeometry>
        </mxCell>
        <mxCell id="rmzS-7ujOIjfE1PjtxYk-220" value="" style="endArrow=none;html=1;rounded=0;" parent="1" edge="1">
          <mxGeometry width="50" height="50" relative="1" as="geometry">
            <mxPoint x="-550" y="820" as="sourcePoint" />
            <mxPoint x="-340" y="820" as="targetPoint" />
          </mxGeometry>
        </mxCell>
        <mxCell id="rmzS-7ujOIjfE1PjtxYk-221" value="" style="endArrow=none;html=1;rounded=0;exitX=0.457;exitY=0.006;exitDx=0;exitDy=0;exitPerimeter=0;" parent="1" source="rmzS-7ujOIjfE1PjtxYk-139" edge="1">
          <mxGeometry width="50" height="50" relative="1" as="geometry">
            <mxPoint x="-370" y="910" as="sourcePoint" />
            <mxPoint x="-340" y="820" as="targetPoint" />
          </mxGeometry>
        </mxCell>
        <mxCell id="rmzS-7ujOIjfE1PjtxYk-222" value="" style="endArrow=none;html=1;rounded=0;" parent="1" edge="1">
          <mxGeometry width="50" height="50" relative="1" as="geometry">
            <mxPoint x="-550" y="840" as="sourcePoint" />
            <mxPoint x="-170" y="840" as="targetPoint" />
          </mxGeometry>
        </mxCell>
        <mxCell id="rmzS-7ujOIjfE1PjtxYk-225" value="" style="endArrow=none;html=1;rounded=0;" parent="1" edge="1">
          <mxGeometry width="50" height="50" relative="1" as="geometry">
            <mxPoint x="-800" y="980" as="sourcePoint" />
            <mxPoint x="-750" y="980" as="targetPoint" />
          </mxGeometry>
        </mxCell>
        <mxCell id="rmzS-7ujOIjfE1PjtxYk-226" value="" style="endArrow=none;html=1;rounded=0;" parent="1" edge="1">
          <mxGeometry width="50" height="50" relative="1" as="geometry">
            <mxPoint x="-820" y="1010" as="sourcePoint" />
            <mxPoint x="-750" y="1010" as="targetPoint" />
          </mxGeometry>
        </mxCell>
        <mxCell id="rmzS-7ujOIjfE1PjtxYk-227" value="" style="endArrow=none;html=1;rounded=0;" parent="1" edge="1">
          <mxGeometry width="50" height="50" relative="1" as="geometry">
            <mxPoint x="-800" y="980" as="sourcePoint" />
            <mxPoint x="-800" y="210" as="targetPoint" />
          </mxGeometry>
        </mxCell>
        <mxCell id="rmzS-7ujOIjfE1PjtxYk-228" value="" style="endArrow=none;html=1;rounded=0;" parent="1" edge="1">
          <mxGeometry width="50" height="50" relative="1" as="geometry">
            <mxPoint x="-800" y="210" as="sourcePoint" />
            <mxPoint x="180" y="210" as="targetPoint" />
          </mxGeometry>
        </mxCell>
        <mxCell id="rmzS-7ujOIjfE1PjtxYk-229" value="" style="endArrow=none;html=1;rounded=0;exitX=0.5;exitY=0;exitDx=0;exitDy=0;" parent="1" source="rmzS-7ujOIjfE1PjtxYk-9" edge="1">
          <mxGeometry width="50" height="50" relative="1" as="geometry">
            <mxPoint x="-80" y="350" as="sourcePoint" />
            <mxPoint x="180" y="210" as="targetPoint" />
          </mxGeometry>
        </mxCell>
        <mxCell id="rmzS-7ujOIjfE1PjtxYk-230" value="" style="endArrow=none;html=1;rounded=0;" parent="1" edge="1">
          <mxGeometry width="50" height="50" relative="1" as="geometry">
            <mxPoint x="-820" y="198.5185185185185" as="sourcePoint" />
            <mxPoint x="-820" y="1010" as="targetPoint" />
          </mxGeometry>
        </mxCell>
        <mxCell id="rmzS-7ujOIjfE1PjtxYk-231" value="" style="endArrow=none;html=1;rounded=0;" parent="1" edge="1">
          <mxGeometry width="50" height="50" relative="1" as="geometry">
            <mxPoint x="-820" y="200" as="sourcePoint" />
            <mxPoint x="190" y="200" as="targetPoint" />
          </mxGeometry>
        </mxCell>
        <mxCell id="rmzS-7ujOIjfE1PjtxYk-232" value="" style="endArrow=none;html=1;rounded=0;exitX=0.551;exitY=0.018;exitDx=0;exitDy=0;exitPerimeter=0;" parent="1" edge="1">
          <mxGeometry width="50" height="50" relative="1" as="geometry">
            <mxPoint x="190.20000000000027" y="311.32000000000016" as="sourcePoint" />
            <mxPoint x="190" y="200" as="targetPoint" />
          </mxGeometry>
        </mxCell>
        <mxCell id="rmzS-7ujOIjfE1PjtxYk-233" value="" style="shape=table;startSize=0;container=1;collapsible=0;childLayout=tableLayout;" parent="1" vertex="1">
          <mxGeometry x="1020" y="270" width="250" height="40" as="geometry" />
        </mxCell>
        <mxCell id="rmzS-7ujOIjfE1PjtxYk-234" value="" style="shape=tableRow;horizontal=0;startSize=0;swimlaneHead=0;swimlaneBody=0;strokeColor=inherit;top=0;left=0;bottom=0;right=0;collapsible=0;dropTarget=0;fillColor=none;points=[[0,0.5],[1,0.5]];portConstraint=eastwest;" parent="rmzS-7ujOIjfE1PjtxYk-233" vertex="1">
          <mxGeometry width="250" height="20" as="geometry" />
        </mxCell>
        <mxCell id="rmzS-7ujOIjfE1PjtxYk-235" value="user(1)" style="shape=partialRectangle;html=1;whiteSpace=wrap;connectable=0;strokeColor=inherit;overflow=hidden;fillColor=none;top=0;left=0;bottom=0;right=0;pointerEvents=1;" parent="rmzS-7ujOIjfE1PjtxYk-234" vertex="1">
          <mxGeometry width="125" height="20" as="geometry">
            <mxRectangle width="125" height="20" as="alternateBounds" />
          </mxGeometry>
        </mxCell>
        <mxCell id="rmzS-7ujOIjfE1PjtxYk-236" value="address(m)" style="shape=partialRectangle;html=1;whiteSpace=wrap;connectable=0;strokeColor=inherit;overflow=hidden;fillColor=none;top=0;left=0;bottom=0;right=0;pointerEvents=1;" parent="rmzS-7ujOIjfE1PjtxYk-234" vertex="1">
          <mxGeometry x="125" width="125" height="20" as="geometry">
            <mxRectangle width="125" height="20" as="alternateBounds" />
          </mxGeometry>
        </mxCell>
        <mxCell id="rmzS-7ujOIjfE1PjtxYk-237" value="" style="shape=tableRow;horizontal=0;startSize=0;swimlaneHead=0;swimlaneBody=0;strokeColor=inherit;top=0;left=0;bottom=0;right=0;collapsible=0;dropTarget=0;fillColor=none;points=[[0,0.5],[1,0.5]];portConstraint=eastwest;" parent="rmzS-7ujOIjfE1PjtxYk-233" vertex="1">
          <mxGeometry y="20" width="250" height="20" as="geometry" />
        </mxCell>
        <mxCell id="rmzS-7ujOIjfE1PjtxYk-238" value="restaurant(1)" style="shape=partialRectangle;html=1;whiteSpace=wrap;connectable=0;strokeColor=inherit;overflow=hidden;fillColor=none;top=0;left=0;bottom=0;right=0;pointerEvents=1;" parent="rmzS-7ujOIjfE1PjtxYk-237" vertex="1">
          <mxGeometry width="125" height="20" as="geometry">
            <mxRectangle width="125" height="20" as="alternateBounds" />
          </mxGeometry>
        </mxCell>
        <mxCell id="rmzS-7ujOIjfE1PjtxYk-239" value="address(1)" style="shape=partialRectangle;html=1;whiteSpace=wrap;connectable=0;strokeColor=inherit;overflow=hidden;fillColor=none;top=0;left=0;bottom=0;right=0;pointerEvents=1;" parent="rmzS-7ujOIjfE1PjtxYk-237" vertex="1">
          <mxGeometry x="125" width="125" height="20" as="geometry">
            <mxRectangle width="125" height="20" as="alternateBounds" />
          </mxGeometry>
        </mxCell>
        <mxCell id="rmzS-7ujOIjfE1PjtxYk-241" value="&lt;b&gt;cardinality&lt;/b&gt;" style="rounded=1;whiteSpace=wrap;html=1;" parent="1" vertex="1">
          <mxGeometry x="1020" y="250" width="250" height="20" as="geometry" />
        </mxCell>
        <mxCell id="rmzS-7ujOIjfE1PjtxYk-260" value="" style="shape=table;startSize=0;container=1;collapsible=0;childLayout=tableLayout;" parent="1" vertex="1">
          <mxGeometry x="1020" y="310" width="250" height="40" as="geometry" />
        </mxCell>
        <mxCell id="rmzS-7ujOIjfE1PjtxYk-261" value="" style="shape=tableRow;horizontal=0;startSize=0;swimlaneHead=0;swimlaneBody=0;strokeColor=inherit;top=0;left=0;bottom=0;right=0;collapsible=0;dropTarget=0;fillColor=none;points=[[0,0.5],[1,0.5]];portConstraint=eastwest;" parent="rmzS-7ujOIjfE1PjtxYk-260" vertex="1">
          <mxGeometry width="250" height="20" as="geometry" />
        </mxCell>
        <mxCell id="rmzS-7ujOIjfE1PjtxYk-262" value="user(1)" style="shape=partialRectangle;html=1;whiteSpace=wrap;connectable=0;strokeColor=inherit;overflow=hidden;fillColor=none;top=0;left=0;bottom=0;right=0;pointerEvents=1;" parent="rmzS-7ujOIjfE1PjtxYk-261" vertex="1">
          <mxGeometry width="125" height="20" as="geometry">
            <mxRectangle width="125" height="20" as="alternateBounds" />
          </mxGeometry>
        </mxCell>
        <mxCell id="rmzS-7ujOIjfE1PjtxYk-263" value="images(m)" style="shape=partialRectangle;html=1;whiteSpace=wrap;connectable=0;strokeColor=inherit;overflow=hidden;fillColor=none;top=0;left=0;bottom=0;right=0;pointerEvents=1;" parent="rmzS-7ujOIjfE1PjtxYk-261" vertex="1">
          <mxGeometry x="125" width="125" height="20" as="geometry">
            <mxRectangle width="125" height="20" as="alternateBounds" />
          </mxGeometry>
        </mxCell>
        <mxCell id="rmzS-7ujOIjfE1PjtxYk-264" value="" style="shape=tableRow;horizontal=0;startSize=0;swimlaneHead=0;swimlaneBody=0;strokeColor=inherit;top=0;left=0;bottom=0;right=0;collapsible=0;dropTarget=0;fillColor=none;points=[[0,0.5],[1,0.5]];portConstraint=eastwest;" parent="rmzS-7ujOIjfE1PjtxYk-260" vertex="1">
          <mxGeometry y="20" width="250" height="20" as="geometry" />
        </mxCell>
        <mxCell id="rmzS-7ujOIjfE1PjtxYk-265" value="restaurant(1)" style="shape=partialRectangle;html=1;whiteSpace=wrap;connectable=0;strokeColor=inherit;overflow=hidden;fillColor=none;top=0;left=0;bottom=0;right=0;pointerEvents=1;" parent="rmzS-7ujOIjfE1PjtxYk-264" vertex="1">
          <mxGeometry width="125" height="20" as="geometry">
            <mxRectangle width="125" height="20" as="alternateBounds" />
          </mxGeometry>
        </mxCell>
        <mxCell id="rmzS-7ujOIjfE1PjtxYk-266" value="images(m)" style="shape=partialRectangle;html=1;whiteSpace=wrap;connectable=0;strokeColor=inherit;overflow=hidden;fillColor=none;top=0;left=0;bottom=0;right=0;pointerEvents=1;" parent="rmzS-7ujOIjfE1PjtxYk-264" vertex="1">
          <mxGeometry x="125" width="125" height="20" as="geometry">
            <mxRectangle width="125" height="20" as="alternateBounds" />
          </mxGeometry>
        </mxCell>
        <mxCell id="rmzS-7ujOIjfE1PjtxYk-267" value="" style="shape=table;startSize=0;container=1;collapsible=0;childLayout=tableLayout;" parent="1" vertex="1">
          <mxGeometry x="1020" y="350" width="250" height="40" as="geometry" />
        </mxCell>
        <mxCell id="rmzS-7ujOIjfE1PjtxYk-268" value="" style="shape=tableRow;horizontal=0;startSize=0;swimlaneHead=0;swimlaneBody=0;strokeColor=inherit;top=0;left=0;bottom=0;right=0;collapsible=0;dropTarget=0;fillColor=none;points=[[0,0.5],[1,0.5]];portConstraint=eastwest;" parent="rmzS-7ujOIjfE1PjtxYk-267" vertex="1">
          <mxGeometry width="250" height="20" as="geometry" />
        </mxCell>
        <mxCell id="rmzS-7ujOIjfE1PjtxYk-269" value="items(1)" style="shape=partialRectangle;html=1;whiteSpace=wrap;connectable=0;strokeColor=inherit;overflow=hidden;fillColor=none;top=0;left=0;bottom=0;right=0;pointerEvents=1;" parent="rmzS-7ujOIjfE1PjtxYk-268" vertex="1">
          <mxGeometry width="125" height="20" as="geometry">
            <mxRectangle width="125" height="20" as="alternateBounds" />
          </mxGeometry>
        </mxCell>
        <mxCell id="rmzS-7ujOIjfE1PjtxYk-270" value="Images(m)" style="shape=partialRectangle;html=1;whiteSpace=wrap;connectable=0;strokeColor=inherit;overflow=hidden;fillColor=none;top=0;left=0;bottom=0;right=0;pointerEvents=1;" parent="rmzS-7ujOIjfE1PjtxYk-268" vertex="1">
          <mxGeometry x="125" width="125" height="20" as="geometry">
            <mxRectangle width="125" height="20" as="alternateBounds" />
          </mxGeometry>
        </mxCell>
        <mxCell id="rmzS-7ujOIjfE1PjtxYk-271" value="" style="shape=tableRow;horizontal=0;startSize=0;swimlaneHead=0;swimlaneBody=0;strokeColor=inherit;top=0;left=0;bottom=0;right=0;collapsible=0;dropTarget=0;fillColor=none;points=[[0,0.5],[1,0.5]];portConstraint=eastwest;" parent="rmzS-7ujOIjfE1PjtxYk-267" vertex="1">
          <mxGeometry y="20" width="250" height="20" as="geometry" />
        </mxCell>
        <mxCell id="rmzS-7ujOIjfE1PjtxYk-272" value="restaurant(1)" style="shape=partialRectangle;html=1;whiteSpace=wrap;connectable=0;strokeColor=inherit;overflow=hidden;fillColor=none;top=0;left=0;bottom=0;right=0;pointerEvents=1;" parent="rmzS-7ujOIjfE1PjtxYk-271" vertex="1">
          <mxGeometry width="125" height="20" as="geometry">
            <mxRectangle width="125" height="20" as="alternateBounds" />
          </mxGeometry>
        </mxCell>
        <mxCell id="rmzS-7ujOIjfE1PjtxYk-273" value="menu(m&lt;span style=&quot;color: rgba(0, 0, 0, 0); font-family: monospace; font-size: 0px; text-align: start; text-wrap-mode: nowrap;&quot;&gt;%3CmxGraphModel%3E%3Croot%3E%3CmxCell%20id%3D%220%22%2F%3E%3CmxCell%20id%3D%221%22%20parent%3D%220%22%2F%3E%3CmxCell%20id%3D%222%22%20value%3D%22%22%20style%3D%22shape%3Dtable%3BstartSize%3D0%3Bcontainer%3D1%3Bcollapsible%3D0%3BchildLayout%3DtableLayout%3B%22%20vertex%3D%221%22%20parent%3D%221%22%3E%3CmxGeometry%20x%3D%221010%22%20y%3D%22170%22%20width%3D%22250%22%20height%3D%2240%22%20as%3D%22geometry%22%2F%3E%3C%2FmxCell%3E%3CmxCell%20id%3D%223%22%20value%3D%22%22%20style%3D%22shape%3DtableRow%3Bhorizontal%3D0%3BstartSize%3D0%3BswimlaneHead%3D0%3BswimlaneBody%3D0%3BstrokeColor%3Dinherit%3Btop%3D0%3Bleft%3D0%3Bbottom%3D0%3Bright%3D0%3Bcollapsible%3D0%3BdropTarget%3D0%3BfillColor%3Dnone%3Bpoints%3D%5B%5B0%2C0.5%5D%2C%5B1%2C0.5%5D%5D%3BportConstraint%3Deastwest%3B%22%20vertex%3D%221%22%20parent%3D%222%22%3E%3CmxGeometry%20width%3D%22250%22%20height%3D%2220%22%20as%3D%22geometry%22%2F%3E%3C%2FmxCell%3E%3CmxCell%20id%3D%224%22%20value%3D%22%22%20style%3D%22shape%3DpartialRectangle%3Bhtml%3D1%3BwhiteSpace%3Dwrap%3Bconnectable%3D0%3BstrokeColor%3Dinherit%3Boverflow%3Dhidden%3BfillColor%3Dnone%3Btop%3D0%3Bleft%3D0%3Bbottom%3D0%3Bright%3D0%3BpointerEvents%3D1%3B%22%20vertex%3D%221%22%20parent%3D%223%22%3E%3CmxGeometry%20width%3D%22125%22%20height%3D%2220%22%20as%3D%22geometry%22%3E%3CmxRectangle%20width%3D%22125%22%20height%3D%2220%22%20as%3D%22alternateBounds%22%2F%3E%3C%2FmxGeometry%3E%3C%2FmxCell%3E%3CmxCell%20id%3D%225%22%20value%3D%22%22%20style%3D%22shape%3DpartialRectangle%3Bhtml%3D1%3BwhiteSpace%3Dwrap%3Bconnectable%3D0%3BstrokeColor%3Dinherit%3Boverflow%3Dhidden%3BfillColor%3Dnone%3Btop%3D0%3Bleft%3D0%3Bbottom%3D0%3Bright%3D0%3BpointerEvents%3D1%3B%22%20vertex%3D%221%22%20parent%3D%223%22%3E%3CmxGeometry%20x%3D%22125%22%20width%3D%22125%22%20height%3D%2220%22%20as%3D%22geometry%22%3E%3CmxRectangle%20width%3D%22125%22%20height%3D%2220%22%20as%3D%22alternateBounds%22%2F%3E%3C%2FmxGeometry%3E%3C%2FmxCell%3E%3CmxCell%20id%3D%226%22%20value%3D%22%22%20style%3D%22shape%3DtableRow%3Bhorizontal%3D0%3BstartSize%3D0%3BswimlaneHead%3D0%3BswimlaneBody%3D0%3BstrokeColor%3Dinherit%3Btop%3D0%3Bleft%3D0%3Bbottom%3D0%3Bright%3D0%3Bcollapsible%3D0%3BdropTarget%3D0%3BfillColor%3Dnone%3Bpoints%3D%5B%5B0%2C0.5%5D%2C%5B1%2C0.5%5D%5D%3BportConstraint%3Deastwest%3B%22%20vertex%3D%221%22%20parent%3D%222%22%3E%3CmxGeometry%20y%3D%2220%22%20width%3D%22250%22%20height%3D%2220%22%20as%3D%22geometry%22%2F%3E%3C%2FmxCell%3E%3CmxCell%20id%3D%227%22%20value%3D%22%22%20style%3D%22shape%3DpartialRectangle%3Bhtml%3D1%3BwhiteSpace%3Dwrap%3Bconnectable%3D0%3BstrokeColor%3Dinherit%3Boverflow%3Dhidden%3BfillColor%3Dnone%3Btop%3D0%3Bleft%3D0%3Bbottom%3D0%3Bright%3D0%3BpointerEvents%3D1%3B%22%20vertex%3D%221%22%20parent%3D%226%22%3E%3CmxGeometry%20width%3D%22125%22%20height%3D%2220%22%20as%3D%22geometry%22%3E%3CmxRectangle%20width%3D%22125%22%20height%3D%2220%22%20as%3D%22alternateBounds%22%2F%3E%3C%2FmxGeometry%3E%3C%2FmxCell%3E%3CmxCell%20id%3D%228%22%20value%3D%22%22%20style%3D%22shape%3DpartialRectangle%3Bhtml%3D1%3BwhiteSpace%3Dwrap%3Bconnectable%3D0%3BstrokeColor%3Dinherit%3Boverflow%3Dhidden%3BfillColor%3Dnone%3Btop%3D0%3Bleft%3D0%3Bbottom%3D0%3Bright%3D0%3BpointerEvents%3D1%3B%22%20vertex%3D%221%22%20parent%3D%226%22%3E%3CmxGeometry%20x%3D%22125%22%20width%3D%22125%22%20height%3D%2220%22%20as%3D%22geometry%22%3E%3CmxRectangle%20width%3D%22125%22%20height%3D%2220%22%20as%3D%22alternateBounds%22%2F%3E%3C%2FmxGeometry%3E%3C%2FmxCell%3E%3C%2Froot%3E%3C%2FmxGraphModel%3E&lt;/span&gt;&lt;span style=&quot;color: rgba(0, 0, 0, 0); font-family: monospace; font-size: 0px; text-align: start; text-wrap-mode: nowrap;&quot;&gt;%3CmxGraphModel%3E%3Croot%3E%3CmxCell%20id%3D%220%22%2F%3E%3CmxCell%20id%3D%221%22%20parent%3D%220%22%2F%3E%3CmxCell%20id%3D%222%22%20value%3D%22%22%20style%3D%22shape%3Dtable%3BstartSize%3D0%3Bcontainer%3D1%3Bcollapsible%3D0%3BchildLayout%3DtableLayout%3B%22%20vertex%3D%221%22%20parent%3D%221%22%3E%3CmxGeometry%20x%3D%221010%22%20y%3D%22170%22%20width%3D%22250%22%20height%3D%2240%22%20as%3D%22geometry%22%2F%3E%3C%2FmxCell%3E%3CmxCell%20id%3D%223%22%20value%3D%22%22%20style%3D%22shape%3DtableRow%3Bhorizontal%3D0%3BstartSize%3D0%3BswimlaneHead%3D0%3BswimlaneBody%3D0%3BstrokeColor%3Dinherit%3Btop%3D0%3Bleft%3D0%3Bbottom%3D0%3Bright%3D0%3Bcollapsible%3D0%3BdropTarget%3D0%3BfillColor%3Dnone%3Bpoints%3D%5B%5B0%2C0.5%5D%2C%5B1%2C0.5%5D%5D%3BportConstraint%3Deastwest%3B%22%20vertex%3D%221%22%20parent%3D%222%22%3E%3CmxGeometry%20width%3D%22250%22%20height%3D%2220%22%20as%3D%22geometry%22%2F%3E%3C%2FmxCell%3E%3CmxCell%20id%3D%224%22%20value%3D%22%22%20style%3D%22shape%3DpartialRectangle%3Bhtml%3D1%3BwhiteSpace%3Dwrap%3Bconnectable%3D0%3BstrokeColor%3Dinherit%3Boverflow%3Dhidden%3BfillColor%3Dnone%3Btop%3D0%3Bleft%3D0%3Bbottom%3D0%3Bright%3D0%3BpointerEvents%3D1%3B%22%20vertex%3D%221%22%20parent%3D%223%22%3E%3CmxGeometry%20width%3D%22125%22%20height%3D%2220%22%20as%3D%22geometry%22%3E%3CmxRectangle%20width%3D%22125%22%20height%3D%2220%22%20as%3D%22alternateBounds%22%2F%3E%3C%2FmxGeometry%3E%3C%2FmxCell%3E%3CmxCell%20id%3D%225%22%20value%3D%22%22%20style%3D%22shape%3DpartialRectangle%3Bhtml%3D1%3BwhiteSpace%3Dwrap%3Bconnectable%3D0%3BstrokeColor%3Dinherit%3Boverflow%3Dhidden%3BfillColor%3Dnone%3Btop%3D0%3Bleft%3D0%3Bbottom%3D0%3Bright%3D0%3BpointerEvents%3D1%3B%22%20vertex%3D%221%22%20parent%3D%223%22%3E%3CmxGeometry%20x%3D%22125%22%20width%3D%22125%22%20height%3D%2220%22%20as%3D%22geometry%22%3E%3CmxRectangle%20width%3D%22125%22%20height%3D%2220%22%20as%3D%22alternateBounds%22%2F%3E%3C%2FmxGeometry%3E%3C%2FmxCell%3E%3CmxCell%20id%3D%226%22%20value%3D%22%22%20style%3D%22shape%3DtableRow%3Bhorizontal%3D0%3BstartSize%3D0%3BswimlaneHead%3D0%3BswimlaneBody%3D0%3BstrokeColor%3Dinherit%3Btop%3D0%3Bleft%3D0%3Bbottom%3D0%3Bright%3D0%3Bcollapsible%3D0%3BdropTarget%3D0%3BfillColor%3Dnone%3Bpoints%3D%5B%5B0%2C0.5%5D%2C%5B1%2C0.5%5D%5D%3BportConstraint%3Deastwest%3B%22%20vertex%3D%221%22%20parent%3D%222%22%3E%3CmxGeometry%20y%3D%2220%22%20width%3D%22250%22%20height%3D%2220%22%20as%3D%22geometry%22%2F%3E%3C%2FmxCell%3E%3CmxCell%20id%3D%227%22%20value%3D%22%22%20style%3D%22shape%3DpartialRectangle%3Bhtml%3D1%3BwhiteSpace%3Dwrap%3Bconnectable%3D0%3BstrokeColor%3Dinherit%3Boverflow%3Dhidden%3BfillColor%3Dnone%3Btop%3D0%3Bleft%3D0%3Bbottom%3D0%3Bright%3D0%3BpointerEvents%3D1%3B%22%20vertex%3D%221%22%20parent%3D%226%22%3E%3CmxGeometry%20width%3D%22125%22%20height%3D%2220%22%20as%3D%22geometry%22%3E%3CmxRectangle%20width%3D%22125%22%20height%3D%2220%22%20as%3D%22alternateBounds%22%2F%3E%3C%2FmxGeometry%3E%3C%2FmxCell%3E%3CmxCell%20id%3D%228%22%20value%3D%22%22%20style%3D%22shape%3DpartialRectangle%3Bhtml%3D1%3BwhiteSpace%3Dwrap%3Bconnectable%3D0%3BstrokeColor%3Dinherit%3Boverflow%3Dhidden%3BfillColor%3Dnone%3Btop%3D0%3Bleft%3D0%3Bbottom%3D0%3Bright%3D0%3BpointerEvents%3D1%3B%22%20vertex%3D%221%22%20parent%3D%226%22%3E%3CmxGeometry%20x%3D%22125%22%20width%3D%22125%22%20height%3D%2220%22%20as%3D%22geometry%22%3E%3CmxRectangle%20width%3D%22125%22%20height%3D%2220%22%20as%3D%22alternateBounds%22%2F%3E%3C%2FmxGeometry%3E%3C%2FmxCell%3E%3C%2Froot%3E%3C%2FmxGraphModel%3E&lt;/span&gt;&lt;span style=&quot;color: rgba(0, 0, 0, 0); font-family: monospace; font-size: 0px; text-align: start; text-wrap-mode: nowrap;&quot;&gt;%3CmxGraphModel%3E%3Croot%3E%3CmxCell%20id%3D%220%22%2F%3E%3CmxCell%20id%3D%221%22%20parent%3D%220%22%2F%3E%3CmxCell%20id%3D%222%22%20value%3D%22%22%20style%3D%22shape%3Dtable%3BstartSize%3D0%3Bcontainer%3D1%3Bcollapsible%3D0%3BchildLayout%3DtableLayout%3B%22%20vertex%3D%221%22%20parent%3D%221%22%3E%3CmxGeometry%20x%3D%221010%22%20y%3D%22170%22%20width%3D%22250%22%20height%3D%2240%22%20as%3D%22geometry%22%2F%3E%3C%2FmxCell%3E%3CmxCell%20id%3D%223%22%20value%3D%22%22%20style%3D%22shape%3DtableRow%3Bhorizontal%3D0%3BstartSize%3D0%3BswimlaneHead%3D0%3BswimlaneBody%3D0%3BstrokeColor%3Dinherit%3Btop%3D0%3Bleft%3D0%3Bbottom%3D0%3Bright%3D0%3Bcollapsible%3D0%3BdropTarget%3D0%3BfillColor%3Dnone%3Bpoints%3D%5B%5B0%2C0.5%5D%2C%5B1%2C0.5%5D%5D%3BportConstraint%3Deastwest%3B%22%20vertex%3D%221%22%20parent%3D%222%22%3E%3CmxGeometry%20width%3D%22250%22%20height%3D%2220%22%20as%3D%22geometry%22%2F%3E%3C%2FmxCell%3E%3CmxCell%20id%3D%224%22%20value%3D%22%22%20style%3D%22shape%3DpartialRectangle%3Bhtml%3D1%3BwhiteSpace%3Dwrap%3Bconnectable%3D0%3BstrokeColor%3Dinherit%3Boverflow%3Dhidden%3BfillColor%3Dnone%3Btop%3D0%3Bleft%3D0%3Bbottom%3D0%3Bright%3D0%3BpointerEvents%3D1%3B%22%20vertex%3D%221%22%20parent%3D%223%22%3E%3CmxGeometry%20width%3D%22125%22%20height%3D%2220%22%20as%3D%22geometry%22%3E%3CmxRectangle%20width%3D%22125%22%20height%3D%2220%22%20as%3D%22alternateBounds%22%2F%3E%3C%2FmxGeometry%3E%3C%2FmxCell%3E%3CmxCell%20id%3D%225%22%20value%3D%22%22%20style%3D%22shape%3DpartialRectangle%3Bhtml%3D1%3BwhiteSpace%3Dwrap%3Bconnectable%3D0%3BstrokeColor%3Dinherit%3Boverflow%3Dhidden%3BfillColor%3Dnone%3Btop%3D0%3Bleft%3D0%3Bbottom%3D0%3Bright%3D0%3BpointerEvents%3D1%3B%22%20vertex%3D%221%22%20parent%3D%223%22%3E%3CmxGeometry%20x%3D%22125%22%20width%3D%22125%22%20height%3D%2220%22%20as%3D%22geometry%22%3E%3CmxRectangle%20width%3D%22125%22%20height%3D%2220%22%20as%3D%22alternateBounds%22%2F%3E%3C%2FmxGeometry%3E%3C%2FmxCell%3E%3CmxCell%20id%3D%226%22%20value%3D%22%22%20style%3D%22shape%3DtableRow%3Bhorizontal%3D0%3BstartSize%3D0%3BswimlaneHead%3D0%3BswimlaneBody%3D0%3BstrokeColor%3Dinherit%3Btop%3D0%3Bleft%3D0%3Bbottom%3D0%3Bright%3D0%3Bcollapsible%3D0%3BdropTarget%3D0%3BfillColor%3Dnone%3Bpoints%3D%5B%5B0%2C0.5%5D%2C%5B1%2C0.5%5D%5D%3BportConstraint%3Deastwest%3B%22%20vertex%3D%221%22%20parent%3D%222%22%3E%3CmxGeometry%20y%3D%2220%22%20width%3D%22250%22%20height%3D%2220%22%20as%3D%22geometry%22%2F%3E%3C%2FmxCell%3E%3CmxCell%20id%3D%227%22%20value%3D%22%22%20style%3D%22shape%3DpartialRectangle%3Bhtml%3D1%3BwhiteSpace%3Dwrap%3Bconnectable%3D0%3BstrokeColor%3Dinherit%3Boverflow%3Dhidden%3BfillColor%3Dnone%3Btop%3D0%3Bleft%3D0%3Bbottom%3D0%3Bright%3D0%3BpointerEvents%3D1%3B%22%20vertex%3D%221%22%20parent%3D%226%22%3E%3CmxGeometry%20width%3D%22125%22%20height%3D%2220%22%20as%3D%22geometry%22%3E%3CmxRectangle%20width%3D%22125%22%20height%3D%2220%22%20as%3D%22alternateBounds%22%2F%3E%3C%2FmxGeometry%3E%3C%2FmxCell%3E%3CmxCell%20id%3D%228%22%20value%3D%22%22%20style%3D%22shape%3DpartialRectangle%3Bhtml%3D1%3BwhiteSpace%3Dwrap%3Bconnectable%3D0%3BstrokeColor%3Dinherit%3Boverflow%3Dhidden%3BfillColor%3Dnone%3Btop%3D0%3Bleft%3D0%3Bbottom%3D0%3Bright%3D0%3BpointerEvents%3D1%3B%22%20vertex%3D%221%22%20parent%3D%226%22%3E%3CmxGeometry%20x%3D%22125%22%20width%3D%22125%22%20height%3D%2220%22%20as%3D%22geometry%22%3E%3CmxRectangle%20width%3D%22125%22%20height%3D%2220%22%20as%3D%22alternateBounds%22%2F%3E%3C%2FmxGeometry%3E%3C%2FmxCell%3E%3C%2Froot%3E%3C%2FmxGraphModel%3E&lt;/span&gt;&lt;span style=&quot;color: rgba(0, 0, 0, 0); font-family: monospace; font-size: 0px; text-align: start; text-wrap-mode: nowrap;&quot;&gt;%3CmxGraphModel%3E%3Croot%3E%3CmxCell%20id%3D%220%22%2F%3E%3CmxCell%20id%3D%221%22%20parent%3D%220%22%2F%3E%3CmxCell%20id%3D%222%22%20value%3D%22%22%20style%3D%22shape%3Dtable%3BstartSize%3D0%3Bcontainer%3D1%3Bcollapsible%3D0%3BchildLayout%3DtableLayout%3B%22%20vertex%3D%221%22%20parent%3D%221%22%3E%3CmxGeometry%20x%3D%221010%22%20y%3D%22170%22%20width%3D%22250%22%20height%3D%2240%22%20as%3D%22geometry%22%2F%3E%3C%2FmxCell%3E%3CmxCell%20id%3D%223%22%20value%3D%22%22%20style%3D%22shape%3DtableRow%3Bhorizontal%3D0%3BstartSize%3D0%3BswimlaneHead%3D0%3BswimlaneBody%3D0%3BstrokeColor%3Dinherit%3Btop%3D0%3Bleft%3D0%3Bbottom%3D0%3Bright%3D0%3Bcollapsible%3D0%3BdropTarget%3D0%3BfillColor%3Dnone%3Bpoints%3D%5B%5B0%2C0.5%5D%2C%5B1%2C0.5%5D%5D%3BportConstraint%3Deastwest%3B%22%20vertex%3D%221%22%20parent%3D%222%22%3E%3CmxGeometry%20width%3D%22250%22%20height%3D%2220%22%20as%3D%22geometry%22%2F%3E%3C%2FmxCell%3E%3CmxCell%20id%3D%224%22%20value%3D%22%22%20style%3D%22shape%3DpartialRectangle%3Bhtml%3D1%3BwhiteSpace%3Dwrap%3Bconnectable%3D0%3BstrokeColor%3Dinherit%3Boverflow%3Dhidden%3BfillColor%3Dnone%3Btop%3D0%3Bleft%3D0%3Bbottom%3D0%3Bright%3D0%3BpointerEvents%3D1%3B%22%20vertex%3D%221%22%20parent%3D%223%22%3E%3CmxGeometry%20width%3D%22125%22%20height%3D%2220%22%20as%3D%22geometry%22%3E%3CmxRectangle%20width%3D%22125%22%20height%3D%2220%22%20as%3D%22alternateBounds%22%2F%3E%3C%2FmxGeometry%3E%3C%2FmxCell%3E%3CmxCell%20id%3D%225%22%20value%3D%22%22%20style%3D%22shape%3DpartialRectangle%3Bhtml%3D1%3BwhiteSpace%3Dwrap%3Bconnectable%3D0%3BstrokeColor%3Dinherit%3Boverflow%3Dhidden%3BfillColor%3Dnone%3Btop%3D0%3Bleft%3D0%3Bbottom%3D0%3Bright%3D0%3BpointerEvents%3D1%3B%22%20vertex%3D%221%22%20parent%3D%223%22%3E%3CmxGeometry%20x%3D%22125%22%20width%3D%22125%22%20height%3D%2220%22%20as%3D%22geometry%22%3E%3CmxRectangle%20width%3D%22125%22%20height%3D%2220%22%20as%3D%22alternateBounds%22%2F%3E%3C%2FmxGeometry%3E%3C%2FmxCell%3E%3CmxCell%20id%3D%226%22%20value%3D%22%22%20style%3D%22shape%3DtableRow%3Bhorizontal%3D0%3BstartSize%3D0%3BswimlaneHead%3D0%3BswimlaneBody%3D0%3BstrokeColor%3Dinherit%3Btop%3D0%3Bleft%3D0%3Bbottom%3D0%3Bright%3D0%3Bcollapsible%3D0%3BdropTarget%3D0%3BfillColor%3Dnone%3Bpoints%3D%5B%5B0%2C0.5%5D%2C%5B1%2C0.5%5D%5D%3BportConstraint%3Deastwest%3B%22%20vertex%3D%221%22%20parent%3D%222%22%3E%3CmxGeometry%20y%3D%2220%22%20width%3D%22250%22%20height%3D%2220%22%20as%3D%22geometry%22%2F%3E%3C%2FmxCell%3E%3CmxCell%20id%3D%227%22%20value%3D%22%22%20style%3D%22shape%3DpartialRectangle%3Bhtml%3D1%3BwhiteSpace%3Dwrap%3Bconnectable%3D0%3BstrokeColor%3Dinherit%3Boverflow%3Dhidden%3BfillColor%3Dnone%3Btop%3D0%3Bleft%3D0%3Bbottom%3D0%3Bright%3D0%3BpointerEvents%3D1%3B%22%20vertex%3D%221%22%20parent%3D%226%22%3E%3CmxGeometry%20width%3D%22125%22%20height%3D%2220%22%20as%3D%22geometry%22%3E%3CmxRectangle%20width%3D%22125%22%20height%3D%2220%22%20as%3D%22alternateBounds%22%2F%3E%3C%2FmxGeometry%3E%3C%2FmxCell%3E%3CmxCell%20id%3D%228%22%20value%3D%22%22%20style%3D%22shape%3DpartialRectangle%3Bhtml%3D1%3BwhiteSpace%3Dwrap%3Bconnectable%3D0%3BstrokeColor%3Dinherit%3Boverflow%3Dhidden%3BfillColor%3Dnone%3Btop%3D0%3Bleft%3D0%3Bbottom%3D0%3Bright%3D0%3BpointerEvents%3D1%3B%22%20vertex%3D%221%22%20parent%3D%226%22%3E%3CmxGeometry%20x%3D%22125%22%20width%3D%22125%22%20height%3D%2220%22%20as%3D%22geometry%22%3E%3CmxRectangle%20width%3D%22125%22%20height%3D%2220%22%20as%3D%22alternateBounds%22%2F%3E%3C%2FmxGeometry%3E%3C%2FmxCell%3E%3C%2Froot%3E%3C%2FmxGraphModel%3E&lt;/span&gt;&lt;span style=&quot;color: rgba(0, 0, 0, 0); font-family: monospace; font-size: 0px; text-align: start; text-wrap-mode: nowrap;&quot;&gt;%3CmxGraphModel%3E%3Croot%3E%3CmxCell%20id%3D%220%22%2F%3E%3CmxCell%20id%3D%221%22%20parent%3D%220%22%2F%3E%3CmxCell%20id%3D%222%22%20value%3D%22%22%20style%3D%22shape%3Dtable%3BstartSize%3D0%3Bcontainer%3D1%3Bcollapsible%3D0%3BchildLayout%3DtableLayout%3B%22%20vertex%3D%221%22%20parent%3D%221%22%3E%3CmxGeometry%20x%3D%221010%22%20y%3D%22170%22%20width%3D%22250%22%20height%3D%2240%22%20as%3D%22geometry%22%2F%3E%3C%2FmxCell%3E%3CmxCell%20id%3D%223%22%20value%3D%22%22%20style%3D%22shape%3DtableRow%3Bhorizontal%3D0%3BstartSize%3D0%3BswimlaneHead%3D0%3BswimlaneBody%3D0%3BstrokeColor%3Dinherit%3Btop%3D0%3Bleft%3D0%3Bbottom%3D0%3Bright%3D0%3Bcollapsible%3D0%3BdropTarget%3D0%3BfillColor%3Dnone%3Bpoints%3D%5B%5B0%2C0.5%5D%2C%5B1%2C0.5%5D%5D%3BportConstraint%3Deastwest%3B%22%20vertex%3D%221%22%20parent%3D%222%22%3E%3CmxGeometry%20width%3D%22250%22%20height%3D%2220%22%20as%3D%22geometry%22%2F%3E%3C%2FmxCell%3E%3CmxCell%20id%3D%224%22%20value%3D%22%22%20style%3D%22shape%3DpartialRectangle%3Bhtml%3D1%3BwhiteSpace%3Dwrap%3Bconnectable%3D0%3BstrokeColor%3Dinherit%3Boverflow%3Dhidden%3BfillColor%3Dnone%3Btop%3D0%3Bleft%3D0%3Bbottom%3D0%3Bright%3D0%3BpointerEvents%3D1%3B%22%20vertex%3D%221%22%20parent%3D%223%22%3E%3CmxGeometry%20width%3D%22125%22%20height%3D%2220%22%20as%3D%22geometry%22%3E%3CmxRectangle%20width%3D%22125%22%20height%3D%2220%22%20as%3D%22alternateBounds%22%2F%3E%3C%2FmxGeometry%3E%3C%2FmxCell%3E%3CmxCell%20id%3D%225%22%20value%3D%22%22%20style%3D%22shape%3DpartialRectangle%3Bhtml%3D1%3BwhiteSpace%3Dwrap%3Bconnectable%3D0%3BstrokeColor%3Dinherit%3Boverflow%3Dhidden%3BfillColor%3Dnone%3Btop%3D0%3Bleft%3D0%3Bbottom%3D0%3Bright%3D0%3BpointerEvents%3D1%3B%22%20vertex%3D%221%22%20parent%3D%223%22%3E%3CmxGeometry%20x%3D%22125%22%20width%3D%22125%22%20height%3D%2220%22%20as%3D%22geometry%22%3E%3CmxRectangle%20width%3D%22125%22%20height%3D%2220%22%20as%3D%22alternateBounds%22%2F%3E%3C%2FmxGeometry%3E%3C%2FmxCell%3E%3CmxCell%20id%3D%226%22%20value%3D%22%22%20style%3D%22shape%3DtableRow%3Bhorizontal%3D0%3BstartSize%3D0%3BswimlaneHead%3D0%3BswimlaneBody%3D0%3BstrokeColor%3Dinherit%3Btop%3D0%3Bleft%3D0%3Bbottom%3D0%3Bright%3D0%3Bcollapsible%3D0%3BdropTarget%3D0%3BfillColor%3Dnone%3Bpoints%3D%5B%5B0%2C0.5%5D%2C%5B1%2C0.5%5D%5D%3BportConstraint%3Deastwest%3B%22%20vertex%3D%221%22%20parent%3D%222%22%3E%3CmxGeometry%20y%3D%2220%22%20width%3D%22250%22%20height%3D%2220%22%20as%3D%22geometry%22%2F%3E%3C%2FmxCell%3E%3CmxCell%20id%3D%227%22%20value%3D%22%22%20style%3D%22shape%3DpartialRectangle%3Bhtml%3D1%3BwhiteSpace%3Dwrap%3Bconnectable%3D0%3BstrokeColor%3Dinherit%3Boverflow%3Dhidden%3BfillColor%3Dnone%3Btop%3D0%3Bleft%3D0%3Bbottom%3D0%3Bright%3D0%3BpointerEvents%3D1%3B%22%20vertex%3D%221%22%20parent%3D%226%22%3E%3CmxGeometry%20width%3D%22125%22%20height%3D%2220%22%20as%3D%22geometry%22%3E%3CmxRectangle%20width%3D%22125%22%20height%3D%2220%22%20as%3D%22alternateBounds%22%2F%3E%3C%2FmxGeometry%3E%3C%2FmxCell%3E%3CmxCell%20id%3D%228%22%20value%3D%22%22%20style%3D%22shape%3DpartialRectangle%3Bhtml%3D1%3BwhiteSpace%3Dwrap%3Bconnectable%3D0%3BstrokeColor%3Dinherit%3Boverflow%3Dhidden%3BfillColor%3Dnone%3Btop%3D0%3Bleft%3D0%3Bbottom%3D0%3Bright%3D0%3BpointerEvents%3D1%3B%22%20vertex%3D%221%22%20parent%3D%226%22%3E%3CmxGeometry%20x%3D%22125%22%20width%3D%22125%22%20height%3D%2220%22%20as%3D%22geometry%22%3E%3CmxRectangle%20width%3D%22125%22%20height%3D%2220%22%20as%3D%22alternateBounds%22%2F%3E%3C%2FmxGeometry%3E%3C%2FmxCell%3E%3C%2Froot%3E%3C%2FmxGraphModel%3E&lt;/span&gt;)" style="shape=partialRectangle;html=1;whiteSpace=wrap;connectable=0;strokeColor=inherit;overflow=hidden;fillColor=none;top=0;left=0;bottom=0;right=0;pointerEvents=1;" parent="rmzS-7ujOIjfE1PjtxYk-271" vertex="1">
          <mxGeometry x="125" width="125" height="20" as="geometry">
            <mxRectangle width="125" height="20" as="alternateBounds" />
          </mxGeometry>
        </mxCell>
        <mxCell id="rmzS-7ujOIjfE1PjtxYk-323" value="" style="shape=table;startSize=0;container=1;collapsible=0;childLayout=tableLayout;" parent="1" vertex="1">
          <mxGeometry x="1020" y="510" width="250" height="40" as="geometry" />
        </mxCell>
        <mxCell id="rmzS-7ujOIjfE1PjtxYk-324" value="" style="shape=tableRow;horizontal=0;startSize=0;swimlaneHead=0;swimlaneBody=0;strokeColor=inherit;top=0;left=0;bottom=0;right=0;collapsible=0;dropTarget=0;fillColor=none;points=[[0,0.5],[1,0.5]];portConstraint=eastwest;" parent="rmzS-7ujOIjfE1PjtxYk-323" vertex="1">
          <mxGeometry width="250" height="20" as="geometry" />
        </mxCell>
        <mxCell id="rmzS-7ujOIjfE1PjtxYk-325" value="order(1)" style="shape=partialRectangle;html=1;whiteSpace=wrap;connectable=0;strokeColor=inherit;overflow=hidden;fillColor=none;top=0;left=0;bottom=0;right=0;pointerEvents=1;" parent="rmzS-7ujOIjfE1PjtxYk-324" vertex="1">
          <mxGeometry width="125" height="20" as="geometry">
            <mxRectangle width="125" height="20" as="alternateBounds" />
          </mxGeometry>
        </mxCell>
        <mxCell id="rmzS-7ujOIjfE1PjtxYk-326" value="payment(1)" style="shape=partialRectangle;html=1;whiteSpace=wrap;connectable=0;strokeColor=inherit;overflow=hidden;fillColor=none;top=0;left=0;bottom=0;right=0;pointerEvents=1;" parent="rmzS-7ujOIjfE1PjtxYk-324" vertex="1">
          <mxGeometry x="125" width="125" height="20" as="geometry">
            <mxRectangle width="125" height="20" as="alternateBounds" />
          </mxGeometry>
        </mxCell>
        <mxCell id="rmzS-7ujOIjfE1PjtxYk-327" value="" style="shape=tableRow;horizontal=0;startSize=0;swimlaneHead=0;swimlaneBody=0;strokeColor=inherit;top=0;left=0;bottom=0;right=0;collapsible=0;dropTarget=0;fillColor=none;points=[[0,0.5],[1,0.5]];portConstraint=eastwest;" parent="rmzS-7ujOIjfE1PjtxYk-323" vertex="1">
          <mxGeometry y="20" width="250" height="20" as="geometry" />
        </mxCell>
        <mxCell id="rmzS-7ujOIjfE1PjtxYk-328" value="" style="shape=partialRectangle;html=1;whiteSpace=wrap;connectable=0;strokeColor=inherit;overflow=hidden;fillColor=none;top=0;left=0;bottom=0;right=0;pointerEvents=1;" parent="rmzS-7ujOIjfE1PjtxYk-327" vertex="1">
          <mxGeometry width="125" height="20" as="geometry">
            <mxRectangle width="125" height="20" as="alternateBounds" />
          </mxGeometry>
        </mxCell>
        <mxCell id="rmzS-7ujOIjfE1PjtxYk-329" value="" style="shape=partialRectangle;html=1;whiteSpace=wrap;connectable=0;strokeColor=inherit;overflow=hidden;fillColor=none;top=0;left=0;bottom=0;right=0;pointerEvents=1;" parent="rmzS-7ujOIjfE1PjtxYk-327" vertex="1">
          <mxGeometry x="125" width="125" height="20" as="geometry">
            <mxRectangle width="125" height="20" as="alternateBounds" />
          </mxGeometry>
        </mxCell>
        <mxCell id="rmzS-7ujOIjfE1PjtxYk-330" value="" style="shape=table;startSize=0;container=1;collapsible=0;childLayout=tableLayout;" parent="1" vertex="1">
          <mxGeometry x="1020" y="470" width="250" height="40" as="geometry" />
        </mxCell>
        <mxCell id="rmzS-7ujOIjfE1PjtxYk-331" value="" style="shape=tableRow;horizontal=0;startSize=0;swimlaneHead=0;swimlaneBody=0;strokeColor=inherit;top=0;left=0;bottom=0;right=0;collapsible=0;dropTarget=0;fillColor=none;points=[[0,0.5],[1,0.5]];portConstraint=eastwest;" parent="rmzS-7ujOIjfE1PjtxYk-330" vertex="1">
          <mxGeometry width="250" height="20" as="geometry" />
        </mxCell>
        <mxCell id="rmzS-7ujOIjfE1PjtxYk-332" value="user(1)" style="shape=partialRectangle;html=1;whiteSpace=wrap;connectable=0;strokeColor=inherit;overflow=hidden;fillColor=none;top=0;left=0;bottom=0;right=0;pointerEvents=1;" parent="rmzS-7ujOIjfE1PjtxYk-331" vertex="1">
          <mxGeometry width="125" height="20" as="geometry">
            <mxRectangle width="125" height="20" as="alternateBounds" />
          </mxGeometry>
        </mxCell>
        <mxCell id="rmzS-7ujOIjfE1PjtxYk-333" value="order(m)" style="shape=partialRectangle;html=1;whiteSpace=wrap;connectable=0;strokeColor=inherit;overflow=hidden;fillColor=none;top=0;left=0;bottom=0;right=0;pointerEvents=1;" parent="rmzS-7ujOIjfE1PjtxYk-331" vertex="1">
          <mxGeometry x="125" width="125" height="20" as="geometry">
            <mxRectangle width="125" height="20" as="alternateBounds" />
          </mxGeometry>
        </mxCell>
        <mxCell id="rmzS-7ujOIjfE1PjtxYk-334" value="" style="shape=tableRow;horizontal=0;startSize=0;swimlaneHead=0;swimlaneBody=0;strokeColor=inherit;top=0;left=0;bottom=0;right=0;collapsible=0;dropTarget=0;fillColor=none;points=[[0,0.5],[1,0.5]];portConstraint=eastwest;" parent="rmzS-7ujOIjfE1PjtxYk-330" vertex="1">
          <mxGeometry y="20" width="250" height="20" as="geometry" />
        </mxCell>
        <mxCell id="rmzS-7ujOIjfE1PjtxYk-335" value="order(m)" style="shape=partialRectangle;html=1;whiteSpace=wrap;connectable=0;strokeColor=inherit;overflow=hidden;fillColor=none;top=0;left=0;bottom=0;right=0;pointerEvents=1;" parent="rmzS-7ujOIjfE1PjtxYk-334" vertex="1">
          <mxGeometry width="125" height="20" as="geometry">
            <mxRectangle width="125" height="20" as="alternateBounds" />
          </mxGeometry>
        </mxCell>
        <mxCell id="rmzS-7ujOIjfE1PjtxYk-336" value="delivery_partner(1)" style="shape=partialRectangle;html=1;whiteSpace=wrap;connectable=0;strokeColor=inherit;overflow=hidden;fillColor=none;top=0;left=0;bottom=0;right=0;pointerEvents=1;" parent="rmzS-7ujOIjfE1PjtxYk-334" vertex="1">
          <mxGeometry x="125" width="125" height="20" as="geometry">
            <mxRectangle width="125" height="20" as="alternateBounds" />
          </mxGeometry>
        </mxCell>
        <mxCell id="rmzS-7ujOIjfE1PjtxYk-337" value="" style="shape=table;startSize=0;container=1;collapsible=0;childLayout=tableLayout;" parent="1" vertex="1">
          <mxGeometry x="1020" y="430" width="250" height="40" as="geometry" />
        </mxCell>
        <mxCell id="rmzS-7ujOIjfE1PjtxYk-338" value="" style="shape=tableRow;horizontal=0;startSize=0;swimlaneHead=0;swimlaneBody=0;strokeColor=inherit;top=0;left=0;bottom=0;right=0;collapsible=0;dropTarget=0;fillColor=none;points=[[0,0.5],[1,0.5]];portConstraint=eastwest;" parent="rmzS-7ujOIjfE1PjtxYk-337" vertex="1">
          <mxGeometry width="250" height="20" as="geometry" />
        </mxCell>
        <mxCell id="rmzS-7ujOIjfE1PjtxYk-339" value="item(1)" style="shape=partialRectangle;html=1;whiteSpace=wrap;connectable=0;strokeColor=inherit;overflow=hidden;fillColor=none;top=0;left=0;bottom=0;right=0;pointerEvents=1;" parent="rmzS-7ujOIjfE1PjtxYk-338" vertex="1">
          <mxGeometry width="125" height="20" as="geometry">
            <mxRectangle width="125" height="20" as="alternateBounds" />
          </mxGeometry>
        </mxCell>
        <mxCell id="rmzS-7ujOIjfE1PjtxYk-340" value="feedback(m)" style="shape=partialRectangle;html=1;whiteSpace=wrap;connectable=0;strokeColor=inherit;overflow=hidden;fillColor=none;top=0;left=0;bottom=0;right=0;pointerEvents=1;" parent="rmzS-7ujOIjfE1PjtxYk-338" vertex="1">
          <mxGeometry x="125" width="125" height="20" as="geometry">
            <mxRectangle width="125" height="20" as="alternateBounds" />
          </mxGeometry>
        </mxCell>
        <mxCell id="rmzS-7ujOIjfE1PjtxYk-341" value="" style="shape=tableRow;horizontal=0;startSize=0;swimlaneHead=0;swimlaneBody=0;strokeColor=inherit;top=0;left=0;bottom=0;right=0;collapsible=0;dropTarget=0;fillColor=none;points=[[0,0.5],[1,0.5]];portConstraint=eastwest;" parent="rmzS-7ujOIjfE1PjtxYk-337" vertex="1">
          <mxGeometry y="20" width="250" height="20" as="geometry" />
        </mxCell>
        <mxCell id="rmzS-7ujOIjfE1PjtxYk-342" value="restraunt(1)" style="shape=partialRectangle;html=1;whiteSpace=wrap;connectable=0;strokeColor=inherit;overflow=hidden;fillColor=none;top=0;left=0;bottom=0;right=0;pointerEvents=1;" parent="rmzS-7ujOIjfE1PjtxYk-341" vertex="1">
          <mxGeometry width="125" height="20" as="geometry">
            <mxRectangle width="125" height="20" as="alternateBounds" />
          </mxGeometry>
        </mxCell>
        <mxCell id="rmzS-7ujOIjfE1PjtxYk-343" value="feedback(m)" style="shape=partialRectangle;html=1;whiteSpace=wrap;connectable=0;strokeColor=inherit;overflow=hidden;fillColor=none;top=0;left=0;bottom=0;right=0;pointerEvents=1;" parent="rmzS-7ujOIjfE1PjtxYk-341" vertex="1">
          <mxGeometry x="125" width="125" height="20" as="geometry">
            <mxRectangle width="125" height="20" as="alternateBounds" />
          </mxGeometry>
        </mxCell>
        <mxCell id="rmzS-7ujOIjfE1PjtxYk-351" value="" style="shape=table;startSize=0;container=1;collapsible=0;childLayout=tableLayout;" parent="1" vertex="1">
          <mxGeometry x="1020" y="390" width="250" height="40" as="geometry" />
        </mxCell>
        <mxCell id="rmzS-7ujOIjfE1PjtxYk-352" value="" style="shape=tableRow;horizontal=0;startSize=0;swimlaneHead=0;swimlaneBody=0;strokeColor=inherit;top=0;left=0;bottom=0;right=0;collapsible=0;dropTarget=0;fillColor=none;points=[[0,0.5],[1,0.5]];portConstraint=eastwest;" parent="rmzS-7ujOIjfE1PjtxYk-351" vertex="1">
          <mxGeometry width="250" height="20" as="geometry" />
        </mxCell>
        <mxCell id="rmzS-7ujOIjfE1PjtxYk-353" value="menu(1)" style="shape=partialRectangle;html=1;whiteSpace=wrap;connectable=0;strokeColor=inherit;overflow=hidden;fillColor=none;top=0;left=0;bottom=0;right=0;pointerEvents=1;" parent="rmzS-7ujOIjfE1PjtxYk-352" vertex="1">
          <mxGeometry width="125" height="20" as="geometry">
            <mxRectangle width="125" height="20" as="alternateBounds" />
          </mxGeometry>
        </mxCell>
        <mxCell id="rmzS-7ujOIjfE1PjtxYk-354" value="items(m)" style="shape=partialRectangle;html=1;whiteSpace=wrap;connectable=0;strokeColor=inherit;overflow=hidden;fillColor=none;top=0;left=0;bottom=0;right=0;pointerEvents=1;" parent="rmzS-7ujOIjfE1PjtxYk-352" vertex="1">
          <mxGeometry x="125" width="125" height="20" as="geometry">
            <mxRectangle width="125" height="20" as="alternateBounds" />
          </mxGeometry>
        </mxCell>
        <mxCell id="rmzS-7ujOIjfE1PjtxYk-355" value="" style="shape=tableRow;horizontal=0;startSize=0;swimlaneHead=0;swimlaneBody=0;strokeColor=inherit;top=0;left=0;bottom=0;right=0;collapsible=0;dropTarget=0;fillColor=none;points=[[0,0.5],[1,0.5]];portConstraint=eastwest;" parent="rmzS-7ujOIjfE1PjtxYk-351" vertex="1">
          <mxGeometry y="20" width="250" height="20" as="geometry" />
        </mxCell>
        <mxCell id="rmzS-7ujOIjfE1PjtxYk-356" value="order(m)" style="shape=partialRectangle;html=1;whiteSpace=wrap;connectable=0;strokeColor=inherit;overflow=hidden;fillColor=none;top=0;left=0;bottom=0;right=0;pointerEvents=1;" parent="rmzS-7ujOIjfE1PjtxYk-355" vertex="1">
          <mxGeometry width="125" height="20" as="geometry">
            <mxRectangle width="125" height="20" as="alternateBounds" />
          </mxGeometry>
        </mxCell>
        <mxCell id="rmzS-7ujOIjfE1PjtxYk-357" value="items(m)" style="shape=partialRectangle;html=1;whiteSpace=wrap;connectable=0;strokeColor=inherit;overflow=hidden;fillColor=none;top=0;left=0;bottom=0;right=0;pointerEvents=1;" parent="rmzS-7ujOIjfE1PjtxYk-355" vertex="1">
          <mxGeometry x="125" width="125" height="20" as="geometry">
            <mxRectangle width="125" height="20" as="alternateBounds" />
          </mxGeometry>
        </mxCell>
        <mxCell id="rmzS-7ujOIjfE1PjtxYk-362" value="" style="endArrow=none;html=1;rounded=0;" parent="1" edge="1">
          <mxGeometry width="50" height="50" relative="1" as="geometry">
            <mxPoint x="160" y="1170" as="sourcePoint" />
            <mxPoint x="340" y="1170" as="targetPoint" />
          </mxGeometry>
        </mxCell>
        <mxCell id="rmzS-7ujOIjfE1PjtxYk-363" value="" style="endArrow=none;html=1;rounded=0;" parent="1" edge="1">
          <mxGeometry width="50" height="50" relative="1" as="geometry">
            <mxPoint x="340" y="1170" as="sourcePoint" />
            <mxPoint x="340" y="890" as="targetPoint" />
          </mxGeometry>
        </mxCell>
        <mxCell id="rmzS-7ujOIjfE1PjtxYk-364" value="" style="endArrow=none;html=1;rounded=0;" parent="1" edge="1">
          <mxGeometry width="50" height="50" relative="1" as="geometry">
            <mxPoint x="340" y="890" as="sourcePoint" />
            <mxPoint x="470" y="890" as="targetPoint" />
          </mxGeometry>
        </mxCell>
        <mxCell id="rmzS-7ujOIjfE1PjtxYk-365" value="" style="endArrow=none;html=1;rounded=0;exitX=0.5;exitY=0;exitDx=0;exitDy=0;" parent="1" source="rmzS-7ujOIjfE1PjtxYk-87" edge="1">
          <mxGeometry width="50" height="50" relative="1" as="geometry">
            <mxPoint x="410" y="1020" as="sourcePoint" />
            <mxPoint x="470" y="890" as="targetPoint" />
          </mxGeometry>
        </mxCell>
        <mxCell id="MKFNFn4oc3p199kyzGWi-1" value="" style="endArrow=none;html=1;rounded=0;" edge="1" parent="1">
          <mxGeometry width="50" height="50" relative="1" as="geometry">
            <mxPoint x="-920" y="160" as="sourcePoint" />
            <mxPoint x="1360" y="160" as="targetPoint" />
          </mxGeometry>
        </mxCell>
        <mxCell id="MKFNFn4oc3p199kyzGWi-2" value="" style="endArrow=none;html=1;rounded=0;" edge="1" parent="1">
          <mxGeometry width="50" height="50" relative="1" as="geometry">
            <mxPoint x="-920" y="1410" as="sourcePoint" />
            <mxPoint x="-920" y="160" as="targetPoint" />
          </mxGeometry>
        </mxCell>
        <mxCell id="MKFNFn4oc3p199kyzGWi-3" value="" style="endArrow=none;html=1;rounded=0;" edge="1" parent="1">
          <mxGeometry width="50" height="50" relative="1" as="geometry">
            <mxPoint x="-910" y="1410" as="sourcePoint" />
            <mxPoint x="1320" y="1410" as="targetPoint" />
          </mxGeometry>
        </mxCell>
        <mxCell id="MKFNFn4oc3p199kyzGWi-4" value="" style="endArrow=none;html=1;rounded=0;" edge="1" parent="1">
          <mxGeometry width="50" height="50" relative="1" as="geometry">
            <mxPoint x="1360" y="1400" as="sourcePoint" />
            <mxPoint x="1360" y="170" as="targetPoint" />
          </mxGeometry>
        </mxCell>
      </root>
    </mxGraphModel>
  </diagram>
</mxfile>
